STARTFONT 2.1
FONT -FreeType-League Spartan-Bold-R-Normal--16-150-75-75-P-87-ISO10646-1
SIZE 15 75 75
FONTBOUNDINGBOX 22 24 -2 -5
COMMENT "Generated by fontforge, http://fontforge.sourceforge.net"
COMMENT "OFL"
STARTPROPERTIES 31
FOUNDRY "FreeType"
FAMILY_NAME "League Spartan"
WEIGHT_NAME "Bold"
SLANT "R"
SETWIDTH_NAME "Normal"
ADD_STYLE_NAME ""
PIXEL_SIZE 16
POINT_SIZE 150
RESOLUTION_X 75
RESOLUTION_Y 75
SPACING "P"
AVERAGE_WIDTH 87
CHARSET_REGISTRY "ISO10646"
CHARSET_ENCODING "1"
FONTNAME_REGISTRY ""
CHARSET_COLLECTIONS "ISO8859-2 ISO8859-9 ISO8859-4 ISO10646-1"
FONT_NAME "LeagueSpartanBold"
FACE_NAME "League Spartan Bold"
COPYRIGHT "OFL"
FONT_VERSION "001.000"
FONT_ASCENT 10
FONT_DESCENT 6
UNDERLINE_POSITION -2
UNDERLINE_THICKNESS 1
X_HEIGHT 6
CAP_HEIGHT 10
RAW_ASCENT 681
RAW_DESCENT 319
NORM_SPACE 5
AVG_LOWERCASE_WIDTH 83
AVG_UPPERCASE_WIDTH 104
ENDPROPERTIES
CHARS 561
STARTCHAR $000D
ENCODING 13
SWIDTH 585 0
DWIDTH 10 0
BBX 0 0 0 0
BITMAP
ENDCHAR
STARTCHAR $0020
ENCODING 32
SWIDTH 270 0
DWIDTH 5 0
BBX 0 0 0 0
BITMAP
ENDCHAR
STARTCHAR $0021
ENCODING 33
SWIDTH 315 0
DWIDTH 6 0
BBX 3 12 1 0
BITMAP
E0
60
60
60
60
60
40
40
00
E0
E0
60
ENDCHAR
STARTCHAR $0022
ENCODING 34
SWIDTH 405 0
DWIDTH 7 0
BBX 5 4 1 8
BITMAP
D8
D8
D0
90
ENDCHAR
STARTCHAR $0023
ENCODING 35
SWIDTH 675 0
DWIDTH 11 0
BBX 9 11 1 0
BITMAP
1900
1900
1300
7F80
3300
3600
7600
FF00
6C00
6C00
4C00
ENDCHAR
STARTCHAR $0024
ENCODING 36
SWIDTH 540 0
DWIDTH 9 0
BBX 8 14 0 -1
BITMAP
08
1C
3F
7E
70
70
3C
0F
07
43
7F
FE
18
08
ENDCHAR
STARTCHAR $0025
ENCODING 37
SWIDTH 810 0
DWIDTH 13 0
BBX 12 11 1 0
BITMAP
7080
D980
8900
DB00
7600
0400
0DE0
0B60
1330
13E0
31C0
ENDCHAR
STARTCHAR $0026
ENCODING 38
SWIDTH 675 0
DWIDTH 11 0
BBX 11 11 0 0
BITMAP
1E00
3F00
3300
3300
3F00
3E00
7EC0
E3C0
E380
7FC0
3CE0
ENDCHAR
STARTCHAR $0027
ENCODING 39
SWIDTH 225 0
DWIDTH 4 0
BBX 2 4 1 8
BITMAP
C0
C0
C0
80
ENDCHAR
STARTCHAR $0028
ENCODING 40
SWIDTH 315 0
DWIDTH 6 0
BBX 3 15 1 -3
BITMAP
20
60
60
60
C0
C0
C0
C0
C0
C0
C0
40
60
60
20
ENDCHAR
STARTCHAR $0029
ENCODING 41
SWIDTH 315 0
DWIDTH 6 0
BBX 4 15 1 -3
BITMAP
40
C0
60
60
60
70
70
70
70
70
70
60
60
40
C0
ENDCHAR
STARTCHAR $002A
ENCODING 42
SWIDTH 405 0
DWIDTH 7 0
BBX 5 4 1 8
BITMAP
20
F8
70
70
ENDCHAR
STARTCHAR $002B
ENCODING 43
SWIDTH 540 0
DWIDTH 9 0
BBX 7 7 1 2
BITMAP
30
30
FC
FE
38
30
10
ENDCHAR
STARTCHAR $002C
ENCODING 44
SWIDTH 270 0
DWIDTH 5 0
BBX 3 5 1 -1
BITMAP
40
E0
60
60
40
ENDCHAR
STARTCHAR $002D
ENCODING 45
SWIDTH 360 0
DWIDTH 6 0
BBX 4 2 1 4
BITMAP
F0
F0
ENDCHAR
STARTCHAR $002E
ENCODING 46
SWIDTH 315 0
DWIDTH 6 0
BBX 3 3 1 0
BITMAP
60
E0
60
ENDCHAR
STARTCHAR $002F
ENCODING 47
SWIDTH 495 0
DWIDTH 8 0
BBX 7 12 1 0
BITMAP
0E
0C
0C
18
18
10
30
30
60
60
40
C0
ENDCHAR
STARTCHAR $0030
ENCODING 48
SWIDTH 585 0
DWIDTH 10 0
BBX 9 11 0 0
BITMAP
1E00
3F00
7380
6180
6180
E180
6180
6180
7380
3F00
1E00
ENDCHAR
STARTCHAR $0031
ENCODING 49
SWIDTH 315 0
DWIDTH 6 0
BBX 4 11 0 0
BITMAP
30
F0
F0
B0
30
30
30
30
30
30
30
ENDCHAR
STARTCHAR $0032
ENCODING 50
SWIDTH 585 0
DWIDTH 10 0
BBX 8 11 0 0
BITMAP
1E
7F
E3
63
07
07
0E
3C
78
7F
7F
ENDCHAR
STARTCHAR $0033
ENCODING 51
SWIDTH 540 0
DWIDTH 9 0
BBX 8 11 0 0
BITMAP
3C
7E
67
03
0E
0E
07
03
E7
7F
3C
ENDCHAR
STARTCHAR $0034
ENCODING 52
SWIDTH 540 0
DWIDTH 9 0
BBX 8 11 0 0
BITMAP
0E
1E
1E
3E
7E
6E
EE
FF
FF
0E
0C
ENDCHAR
STARTCHAR $0035
ENCODING 53
SWIDTH 540 0
DWIDTH 9 0
BBX 7 11 1 0
BITMAP
7E
7E
60
E0
FC
FE
06
06
CE
FE
78
ENDCHAR
STARTCHAR $0036
ENCODING 54
SWIDTH 540 0
DWIDTH 9 0
BBX 7 11 1 0
BITMAP
1C
18
30
78
7C
FE
E6
C6
C6
FE
38
ENDCHAR
STARTCHAR $0037
ENCODING 55
SWIDTH 540 0
DWIDTH 9 0
BBX 8 11 1 0
BITMAP
FF
FF
0E
0E
0C
1C
18
38
70
60
E0
ENDCHAR
STARTCHAR $0038
ENCODING 56
SWIDTH 540 0
DWIDTH 9 0
BBX 7 11 1 0
BITMAP
38
7E
E6
C6
7E
7E
FE
C6
E6
FE
3C
ENDCHAR
STARTCHAR $0039
ENCODING 57
SWIDTH 540 0
DWIDTH 9 0
BBX 7 11 1 0
BITMAP
38
FE
C6
C6
C6
FE
7E
1C
1C
38
70
ENDCHAR
STARTCHAR $003A
ENCODING 58
SWIDTH 270 0
DWIDTH 5 0
BBX 3 7 1 1
BITMAP
40
E0
40
00
40
E0
E0
ENDCHAR
STARTCHAR $003B
ENCODING 59
SWIDTH 270 0
DWIDTH 5 0
BBX 3 9 1 -1
BITMAP
40
E0
40
00
40
E0
E0
40
40
ENDCHAR
STARTCHAR $003C
ENCODING 60
SWIDTH 540 0
DWIDTH 9 0
BBX 7 8 1 1
BITMAP
02
1E
3E
F0
F0
7C
1E
02
ENDCHAR
STARTCHAR $003D
ENCODING 61
SWIDTH 540 0
DWIDTH 9 0
BBX 7 5 1 4
BITMAP
FE
FE
00
FE
FE
ENDCHAR
STARTCHAR $003E
ENCODING 62
SWIDTH 540 0
DWIDTH 9 0
BBX 7 8 1 1
BITMAP
80
E0
7C
3E
1E
7C
F0
80
ENDCHAR
STARTCHAR $003F
ENCODING 63
SWIDTH 495 0
DWIDTH 8 0
BBX 7 11 0 0
BITMAP
3C
FE
4E
0E
1C
18
30
00
18
38
10
ENDCHAR
STARTCHAR $0040
ENCODING 64
SWIDTH 765 0
DWIDTH 13 0
BBX 11 11 1 0
BITMAP
1F00
7BC0
60C0
DF60
BB60
B360
9B60
DFC0
6100
3F80
1E00
ENDCHAR
STARTCHAR $0041
ENCODING 65
SWIDTH 675 0
DWIDTH 11 0
BBX 11 11 0 0
BITMAP
0E00
0E00
1E00
1F00
3B00
3380
7B80
7F80
7FC0
E0C0
E0E0
ENDCHAR
STARTCHAR $0042
ENCODING 66
SWIDTH 540 0
DWIDTH 9 0
BBX 7 11 1 0
BITMAP
FC
FE
CE
CE
FC
FE
FE
C6
C6
FE
FC
ENDCHAR
STARTCHAR $0043
ENCODING 67
SWIDTH 630 0
DWIDTH 11 0
BBX 9 11 1 0
BITMAP
1F00
3F80
7300
E000
C000
C000
E000
E000
7B00
3F80
0F00
ENDCHAR
STARTCHAR $0044
ENCODING 68
SWIDTH 585 0
DWIDTH 10 0
BBX 8 11 1 0
BITMAP
F8
FE
CE
C7
C3
C3
C3
C7
CE
FE
F8
ENDCHAR
STARTCHAR $0045
ENCODING 69
SWIDTH 540 0
DWIDTH 9 0
BBX 7 11 1 0
BITMAP
FE
FE
C0
C0
FC
FE
FC
C0
C0
FE
FC
ENDCHAR
STARTCHAR $0046
ENCODING 70
SWIDTH 495 0
DWIDTH 8 0
BBX 6 11 1 0
BITMAP
FC
FC
C0
C0
FC
FC
F8
C0
C0
C0
C0
ENDCHAR
STARTCHAR $0047
ENCODING 71
SWIDTH 720 0
DWIDTH 12 0
BBX 11 11 0 0
BITMAP
1F00
3FC0
71C0
6000
E000
E3E0
63E0
60E0
79C0
3FC0
0F00
ENDCHAR
STARTCHAR $0048
ENCODING 72
SWIDTH 630 0
DWIDTH 11 0
BBX 9 11 1 0
BITMAP
C380
C380
C380
C380
FF80
FF80
FF80
C380
C380
C380
C380
ENDCHAR
STARTCHAR $0049
ENCODING 73
SWIDTH 270 0
DWIDTH 5 0
BBX 2 11 1 0
BITMAP
C0
C0
C0
C0
C0
C0
C0
C0
C0
C0
C0
ENDCHAR
STARTCHAR $004A
ENCODING 74
SWIDTH 405 0
DWIDTH 7 0
BBX 6 11 0 0
BITMAP
1C
1C
1C
1C
1C
1C
1C
1C
5C
F8
70
ENDCHAR
STARTCHAR $004B
ENCODING 75
SWIDTH 585 0
DWIDTH 10 0
BBX 8 11 1 0
BITMAP
C7
CE
CC
FC
F8
F0
F8
DC
CE
CE
C7
ENDCHAR
STARTCHAR $004C
ENCODING 76
SWIDTH 495 0
DWIDTH 8 0
BBX 7 11 1 0
BITMAP
C0
C0
C0
C0
C0
C0
C0
C0
C0
FE
FC
ENDCHAR
STARTCHAR $004D
ENCODING 77
SWIDTH 810 0
DWIDTH 13 0
BBX 11 11 1 0
BITMAP
F0E0
F1E0
F1E0
F1E0
F1E0
DB60
DB60
CE60
CE60
CE60
C060
ENDCHAR
STARTCHAR $004E
ENCODING 78
SWIDTH 720 0
DWIDTH 12 0
BBX 9 11 1 0
BITMAP
F180
F180
F180
D980
DD80
CD80
CF80
C780
C780
C380
C380
ENDCHAR
STARTCHAR $004F
ENCODING 79
SWIDTH 720 0
DWIDTH 12 0
BBX 11 11 0 0
BITMAP
1F00
3FC0
71C0
60E0
6060
E060
6060
60E0
79C0
3FC0
0F00
ENDCHAR
STARTCHAR $0050
ENCODING 80
SWIDTH 540 0
DWIDTH 9 0
BBX 7 11 1 0
BITMAP
FC
FE
CE
C6
C6
FE
FC
C0
C0
C0
C0
ENDCHAR
STARTCHAR $0051
ENCODING 81
SWIDTH 720 0
DWIDTH 12 0
BBX 11 14 0 -3
BITMAP
1F00
3FC0
71C0
60E0
6060
E060
E060
60E0
79E0
3FC0
1F00
1F60
13E0
01C0
ENDCHAR
STARTCHAR $0052
ENCODING 82
SWIDTH 585 0
DWIDTH 10 0
BBX 8 11 1 0
BITMAP
FC
FE
C6
C6
C6
FC
FC
DC
CE
CE
C7
ENDCHAR
STARTCHAR $0053
ENCODING 83
SWIDTH 540 0
DWIDTH 9 0
BBX 8 11 0 0
BITMAP
1E
7F
72
70
7C
3E
07
03
63
FF
3E
ENDCHAR
STARTCHAR $0054
ENCODING 84
SWIDTH 495 0
DWIDTH 8 0
BBX 7 11 0 0
BITMAP
FE
FE
18
18
18
18
18
18
18
18
18
ENDCHAR
STARTCHAR $0055
ENCODING 85
SWIDTH 630 0
DWIDTH 11 0
BBX 9 11 1 0
BITMAP
C380
C380
C380
C380
C380
C380
C380
C380
E700
7F00
3C00
ENDCHAR
STARTCHAR $0056
ENCODING 86
SWIDTH 675 0
DWIDTH 11 0
BBX 10 11 0 0
BITMAP
E1C0
61C0
7180
7180
7380
3380
3B00
1F00
1E00
1E00
0E00
ENDCHAR
STARTCHAR $0057
ENCODING 87
SWIDTH 900 0
DWIDTH 15 0
BBX 14 11 0 0
BITMAP
E31C
631C
7398
7798
77B8
77B8
7EB0
3EF0
3CF0
3CF0
3C70
ENDCHAR
STARTCHAR $0058
ENCODING 88
SWIDTH 720 0
DWIDTH 12 0
BBX 11 11 0 0
BITMAP
71C0
7180
3B80
1F00
1E00
0E00
1F00
3B80
7380
71C0
E1E0
ENDCHAR
STARTCHAR $0059
ENCODING 89
SWIDTH 585 0
DWIDTH 10 0
BBX 9 11 0 0
BITMAP
E380
E380
7700
3F00
3E00
1E00
1C00
0C00
0C00
0C00
0C00
ENDCHAR
STARTCHAR $005A
ENCODING 90
SWIDTH 630 0
DWIDTH 11 0
BBX 9 11 0 0
BITMAP
7F80
7F80
0700
0E00
0E00
0C00
1800
3800
7800
7F80
FF80
ENDCHAR
STARTCHAR $005B
ENCODING 91
SWIDTH 360 0
DWIDTH 6 0
BBX 4 15 1 -3
BITMAP
F0
E0
C0
C0
C0
C0
C0
C0
C0
C0
C0
C0
C0
C0
F0
ENDCHAR
STARTCHAR $005C
ENCODING 92
SWIDTH 495 0
DWIDTH 8 0
BBX 6 12 1 0
BITMAP
C0
C0
60
60
70
30
10
18
08
0C
0C
04
ENDCHAR
STARTCHAR $005D
ENCODING 93
SWIDTH 360 0
DWIDTH 6 0
BBX 4 15 1 -3
BITMAP
F0
30
30
30
30
30
30
30
30
30
30
30
30
30
F0
ENDCHAR
STARTCHAR $005E
ENCODING 94
SWIDTH 405 0
DWIDTH 7 0
BBX 6 3 1 8
BITMAP
70
78
CC
ENDCHAR
STARTCHAR $005F
ENCODING 95
SWIDTH 405 0
DWIDTH 7 0
BBX 7 1 0 0
BITMAP
FE
ENDCHAR
STARTCHAR $0060
ENCODING 96
SWIDTH 315 0
DWIDTH 6 0
BBX 3 3 1 8
BITMAP
40
E0
20
ENDCHAR
STARTCHAR $0061
ENCODING 97
SWIDTH 585 0
DWIDTH 10 0
BBX 8 7 0 0
BITMAP
3B
7F
63
E3
7F
3F
1B
ENDCHAR
STARTCHAR $0062
ENCODING 98
SWIDTH 540 0
DWIDTH 9 0
BBX 8 12 1 0
BITMAP
C0
C0
C0
C0
C0
DC
FE
E7
C7
FF
FE
DC
ENDCHAR
STARTCHAR $0063
ENCODING 99
SWIDTH 405 0
DWIDTH 7 0
BBX 6 7 1 0
BITMAP
78
F8
C0
C0
F8
7C
38
ENDCHAR
STARTCHAR $0064
ENCODING 100
SWIDTH 540 0
DWIDTH 9 0
BBX 8 12 0 0
BITMAP
03
03
03
03
03
3B
7F
63
E3
7F
7F
3B
ENDCHAR
STARTCHAR $0065
ENCODING 101
SWIDTH 495 0
DWIDTH 8 0
BBX 7 7 0 0
BITMAP
3C
66
7E
FE
64
3E
1C
ENDCHAR
STARTCHAR $0066
ENCODING 102
SWIDTH 360 0
DWIDTH 6 0
BBX 6 12 0 0
BITMAP
1C
38
70
70
70
F8
F8
70
70
70
70
20
ENDCHAR
STARTCHAR $0067
ENCODING 103
SWIDTH 585 0
DWIDTH 10 0
BBX 8 10 0 -3
BITMAP
3B
7F
63
E3
7F
3F
1B
03
7F
3C
ENDCHAR
STARTCHAR $0068
ENCODING 104
SWIDTH 540 0
DWIDTH 9 0
BBX 7 12 1 0
BITMAP
C0
C0
C0
C0
C0
DC
FE
C6
C6
C6
C6
C6
ENDCHAR
STARTCHAR $0069
ENCODING 105
SWIDTH 270 0
DWIDTH 5 0
BBX 3 11 1 0
BITMAP
C0
E0
40
00
C0
C0
C0
C0
C0
C0
C0
ENDCHAR
STARTCHAR $006A
ENCODING 106
SWIDTH 270 0
DWIDTH 5 0
BBX 4 15 -1 -4
BITMAP
30
70
30
00
30
70
70
70
70
70
70
70
F0
F0
C0
ENDCHAR
STARTCHAR $006B
ENCODING 107
SWIDTH 495 0
DWIDTH 8 0
BBX 7 12 1 0
BITMAP
C0
C0
C0
C0
C0
CC
D8
F8
F8
F8
CC
C6
ENDCHAR
STARTCHAR $006C
ENCODING 108
SWIDTH 270 0
DWIDTH 5 0
BBX 2 12 1 0
BITMAP
C0
C0
C0
C0
C0
C0
C0
C0
C0
C0
C0
C0
ENDCHAR
STARTCHAR $006D
ENCODING 109
SWIDTH 810 0
DWIDTH 13 0
BBX 12 7 1 0
BITMAP
DDC0
EFE0
CE70
CE70
CE70
CE70
C420
ENDCHAR
STARTCHAR $006E
ENCODING 110
SWIDTH 540 0
DWIDTH 9 0
BBX 7 7 1 0
BITMAP
DC
EE
C6
C6
C6
C6
C2
ENDCHAR
STARTCHAR $006F
ENCODING 111
SWIDTH 495 0
DWIDTH 8 0
BBX 8 7 0 0
BITMAP
3C
7E
67
E7
7F
3C
18
ENDCHAR
STARTCHAR $0070
ENCODING 112
SWIDTH 585 0
DWIDTH 10 0
BBX 8 10 1 -3
BITMAP
DE
FE
E7
C3
FF
FE
D8
C0
C0
C0
ENDCHAR
STARTCHAR $0071
ENCODING 113
SWIDTH 585 0
DWIDTH 10 0
BBX 8 10 1 -3
BITMAP
7F
FF
C7
C7
FF
7F
37
07
07
07
ENDCHAR
STARTCHAR $0072
ENCODING 114
SWIDTH 405 0
DWIDTH 7 0
BBX 6 7 1 0
BITMAP
DC
F8
C0
C0
C0
C0
C0
ENDCHAR
STARTCHAR $0073
ENCODING 115
SWIDTH 450 0
DWIDTH 8 0
BBX 6 7 1 0
BITMAP
78
E8
F0
78
9C
F8
F0
ENDCHAR
STARTCHAR $0074
ENCODING 116
SWIDTH 360 0
DWIDTH 6 0
BBX 5 9 0 1
BITMAP
70
70
70
F8
F8
70
70
78
38
ENDCHAR
STARTCHAR $0075
ENCODING 117
SWIDTH 540 0
DWIDTH 9 0
BBX 7 7 1 0
BITMAP
C6
C6
C6
C6
FE
7C
38
ENDCHAR
STARTCHAR $0076
ENCODING 118
SWIDTH 540 0
DWIDTH 9 0
BBX 8 7 0 0
BITMAP
E3
67
76
7E
3E
3C
18
ENDCHAR
STARTCHAR $0077
ENCODING 119
SWIDTH 720 0
DWIDTH 12 0
BBX 12 7 0 0
BITMAP
C670
EE60
6E60
7FE0
79C0
31C0
1080
ENDCHAR
STARTCHAR $0078
ENCODING 120
SWIDTH 540 0
DWIDTH 9 0
BBX 7 7 1 0
BITMAP
EE
7C
38
38
7C
EE
C2
ENDCHAR
STARTCHAR $0079
ENCODING 121
SWIDTH 495 0
DWIDTH 8 0
BBX 8 10 0 -3
BITMAP
C3
67
76
7E
3C
3C
18
38
30
70
ENDCHAR
STARTCHAR $007A
ENCODING 122
SWIDTH 450 0
DWIDTH 8 0
BBX 7 7 0 0
BITMAP
7E
3C
18
38
70
7C
FC
ENDCHAR
STARTCHAR $007B
ENCODING 123
SWIDTH 360 0
DWIDTH 6 0
BBX 4 15 1 -3
BITMAP
70
60
60
60
60
60
E0
C0
60
60
60
60
60
60
70
ENDCHAR
STARTCHAR $007C
ENCODING 124
SWIDTH 225 0
DWIDTH 4 0
BBX 2 14 1 -2
BITMAP
C0
C0
C0
C0
C0
C0
C0
C0
C0
C0
C0
C0
C0
C0
ENDCHAR
STARTCHAR $007D
ENCODING 125
SWIDTH 360 0
DWIDTH 6 0
BBX 4 15 1 -3
BITMAP
E0
60
70
70
70
70
70
30
70
70
70
70
70
70
E0
ENDCHAR
STARTCHAR $007E
ENCODING 126
SWIDTH 585 0
DWIDTH 10 0
BBX 8 3 1 4
BITMAP
70
FF
0E
ENDCHAR
STARTCHAR $00A0
ENCODING 160
SWIDTH 270 0
DWIDTH 5 0
BBX 0 0 0 0
BITMAP
ENDCHAR
STARTCHAR $00A1
ENCODING 161
SWIDTH 315 0
DWIDTH 6 0
BBX 3 12 1 -1
BITMAP
60
E0
60
00
60
60
60
60
60
60
60
60
ENDCHAR
STARTCHAR $00A2
ENCODING 162
SWIDTH 405 0
DWIDTH 7 0
BBX 6 9 1 0
BITMAP
10
38
7C
F8
C0
C0
F8
78
10
ENDCHAR
STARTCHAR $00A3
ENCODING 163
SWIDTH 630 0
DWIDTH 11 0
BBX 8 11 1 0
BITMAP
3C
7E
62
60
60
70
FC
38
38
FF
CE
ENDCHAR
STARTCHAR $00A4
ENCODING 164
SWIDTH 540 0
DWIDTH 9 0
BBX 7 7 1 2
BITMAP
FA
FE
CE
C6
C6
FE
FE
ENDCHAR
STARTCHAR $00A5
ENCODING 165
SWIDTH 585 0
DWIDTH 10 0
BBX 9 11 0 0
BITMAP
E380
E380
7700
3F00
3E00
7F80
7F00
0C00
7F80
1C00
0C00
ENDCHAR
STARTCHAR $00A6
ENCODING 166
SWIDTH 225 0
DWIDTH 4 0
BBX 2 12 1 0
BITMAP
C0
C0
C0
C0
00
00
00
C0
C0
C0
C0
C0
ENDCHAR
STARTCHAR $00A7
ENCODING 167
SWIDTH 540 0
DWIDTH 9 0
BBX 7 15 1 -4
BITMAP
78
7C
EC
E0
7C
7E
CE
C6
FC
FC
1C
0E
FE
FC
38
ENDCHAR
STARTCHAR $00A8
ENCODING 168
SWIDTH 495 0
DWIDTH 8 0
BBX 6 2 1 9
BITMAP
48
CC
ENDCHAR
STARTCHAR $00A9
ENCODING 169
SWIDTH 765 0
DWIDTH 13 0
BBX 11 11 1 0
BITMAP
1E00
7180
40C0
9E40
9860
9060
9860
9E40
40C0
3F80
1E00
ENDCHAR
STARTCHAR $00AA
ENCODING 170
SWIDTH 405 0
DWIDTH 7 0
BBX 5 4 1 8
BITMAP
78
D8
C8
78
ENDCHAR
STARTCHAR $00AB
ENCODING 171
SWIDTH 495 0
DWIDTH 8 0
BBX 6 6 1 1
BITMAP
24
6C
C8
D8
EC
2C
ENDCHAR
STARTCHAR $00AC
ENCODING 172
SWIDTH 495 0
DWIDTH 8 0
BBX 7 4 1 1
BITMAP
FE
FE
0E
04
ENDCHAR
STARTCHAR $00AD
ENCODING 173
SWIDTH 360 0
DWIDTH 6 0
BBX 4 2 1 4
BITMAP
F0
F0
ENDCHAR
STARTCHAR $00AE
ENCODING 174
SWIDTH 405 0
DWIDTH 7 0
BBX 5 6 1 5
BITMAP
70
F8
D8
E8
88
20
ENDCHAR
STARTCHAR $00AF
ENCODING 175
SWIDTH 450 0
DWIDTH 8 0
BBX 6 1 1 9
BITMAP
FC
ENDCHAR
STARTCHAR $00B0
ENCODING 176
SWIDTH 315 0
DWIDTH 6 0
BBX 3 3 1 9
BITMAP
60
A0
60
ENDCHAR
STARTCHAR $00B1
ENCODING 177
SWIDTH 540 0
DWIDTH 9 0
BBX 7 9 1 1
BITMAP
30
30
FC
FE
38
30
00
FE
FC
ENDCHAR
STARTCHAR $00B2
ENCODING 178
SWIDTH 225 0
DWIDTH 4 0
BBX 3 4 1 8
BITMAP
C0
20
40
C0
ENDCHAR
STARTCHAR $00B3
ENCODING 179
SWIDTH 225 0
DWIDTH 4 0
BBX 3 4 0 8
BITMAP
60
20
20
E0
ENDCHAR
STARTCHAR $00B4
ENCODING 180
SWIDTH 495 0
DWIDTH 8 0
BBX 3 3 2 8
BITMAP
20
E0
C0
ENDCHAR
STARTCHAR $00B5
ENCODING 181
SWIDTH 540 0
DWIDTH 9 0
BBX 7 9 1 -2
BITMAP
C6
C6
C6
C6
FE
FC
F8
C0
C0
ENDCHAR
STARTCHAR $00B6
ENCODING 182
SWIDTH 540 0
DWIDTH 9 0
BBX 8 11 0 0
BITMAP
3F
7F
FD
FD
FD
7D
3D
0D
0D
0D
0D
ENDCHAR
STARTCHAR $00B7
ENCODING 183
SWIDTH 270 0
DWIDTH 5 0
BBX 3 3 1 2
BITMAP
40
E0
40
ENDCHAR
STARTCHAR $00B8
ENCODING 184
SWIDTH 360 0
DWIDTH 6 0
BBX 4 4 1 -4
BITMAP
40
20
F0
E0
ENDCHAR
STARTCHAR $00B9
ENCODING 185
SWIDTH 135 0
DWIDTH 3 0
BBX 1 1 0 10
BITMAP
80
ENDCHAR
STARTCHAR $00BA
ENCODING 186
SWIDTH 450 0
DWIDTH 8 0
BBX 5 4 1 8
BITMAP
78
D8
C8
78
ENDCHAR
STARTCHAR $00BB
ENCODING 187
SWIDTH 495 0
DWIDTH 8 0
BBX 7 6 1 1
BITMAP
58
D8
6C
66
4C
D8
ENDCHAR
STARTCHAR $00BC
ENCODING 188
SWIDTH 720 0
DWIDTH 12 0
BBX 10 11 1 0
BITMAP
4180
C300
4200
4600
4400
4D80
4980
1A80
36C0
20C0
2080
ENDCHAR
STARTCHAR $00BD
ENCODING 189
SWIDTH 765 0
DWIDTH 13 0
BBX 11 11 1 0
BITMAP
4180
C300
4200
4600
44C0
4DE0
5860
1060
30C0
21C0
21E0
ENDCHAR
STARTCHAR $00BE
ENCODING 190
SWIDTH 765 0
DWIDTH 13 0
BBX 11 11 1 0
BITMAP
7080
F180
3100
3300
9200
F4C0
6DC0
0940
1A40
10E0
3040
ENDCHAR
STARTCHAR $00BF
ENCODING 191
SWIDTH 495 0
DWIDTH 8 0
BBX 7 11 0 0
BITMAP
18
38
18
00
18
18
70
60
E6
7E
3C
ENDCHAR
STARTCHAR $00C0
ENCODING 192
SWIDTH 675 0
DWIDTH 11 0
BBX 10 15 0 0
BITMAP
1800
1800
0C00
0000
0E00
0E00
1F00
1B00
3300
3180
7F80
7F80
61C0
E0C0
C0C0
ENDCHAR
STARTCHAR $00C1
ENCODING 193
SWIDTH 675 0
DWIDTH 11 0
BBX 10 15 0 0
BITMAP
0200
0600
0C00
0000
0E00
0E00
1F00
1B00
3300
3180
7F80
7F80
61C0
E0C0
C0C0
ENDCHAR
STARTCHAR $00C2
ENCODING 194
SWIDTH 675 0
DWIDTH 11 0
BBX 10 15 0 0
BITMAP
0C00
1F00
1200
0000
0E00
0E00
1F00
1B00
3300
3180
7F80
7F80
61C0
E0C0
C0C0
ENDCHAR
STARTCHAR $00C3
ENCODING 195
SWIDTH 675 0
DWIDTH 11 0
BBX 11 14 0 0
BITMAP
1F00
1700
0000
0E00
0E00
1E00
1F00
3B00
3180
7F80
7F80
7FC0
E0C0
E0E0
ENDCHAR
STARTCHAR $00C4
ENCODING 196
SWIDTH 675 0
DWIDTH 11 0
BBX 11 14 0 0
BITMAP
1B00
1B00
0000
0E00
0E00
1E00
1F00
3B00
3180
7F80
7F80
7FC0
E0C0
E0E0
ENDCHAR
STARTCHAR $00C5
ENCODING 197
SWIDTH 675 0
DWIDTH 11 0
BBX 10 15 0 0
BITMAP
0E00
0A00
0E00
0000
0E00
0E00
1F00
1B00
3300
3180
7F80
7F80
61C0
E0C0
C0C0
ENDCHAR
STARTCHAR $00C6
ENCODING 198
SWIDTH 855 0
DWIDTH 14 0
BBX 13 11 0 0
BITMAP
07F8
07F8
0F80
0F80
1DF8
19F8
39F8
3F80
7F80
61F8
E1F8
ENDCHAR
STARTCHAR $00C7
ENCODING 199
SWIDTH 630 0
DWIDTH 11 0
BBX 9 15 1 -4
BITMAP
1F00
3F80
7300
E000
C000
C000
E000
E000
7B00
3F80
1F00
0400
0200
0E00
0C00
ENDCHAR
STARTCHAR $00C8
ENCODING 200
SWIDTH 540 0
DWIDTH 9 0
BBX 7 15 1 0
BITMAP
40
60
10
00
FE
FC
C0
C0
FE
FE
C0
C0
FC
FE
FC
ENDCHAR
STARTCHAR $00C9
ENCODING 201
SWIDTH 540 0
DWIDTH 9 0
BBX 7 15 1 0
BITMAP
18
18
30
00
FE
FC
C0
C0
FE
FE
C0
C0
FC
FE
FC
ENDCHAR
STARTCHAR $00CA
ENCODING 202
SWIDTH 540 0
DWIDTH 9 0
BBX 7 15 1 0
BITMAP
30
78
4C
00
FE
FC
C0
C0
FE
FE
C0
C0
FC
FE
FC
ENDCHAR
STARTCHAR $00CB
ENCODING 203
SWIDTH 540 0
DWIDTH 9 0
BBX 7 14 1 0
BITMAP
4C
6C
00
FE
FE
C0
C0
FC
FE
E0
C0
C0
FE
FC
ENDCHAR
STARTCHAR $00CC
ENCODING 204
SWIDTH 270 0
DWIDTH 5 0
BBX 3 15 0 0
BITMAP
80
E0
60
00
60
60
60
60
60
60
60
60
60
60
40
ENDCHAR
STARTCHAR $00CD
ENCODING 205
SWIDTH 270 0
DWIDTH 5 0
BBX 3 15 1 0
BITMAP
20
E0
C0
00
C0
C0
C0
C0
C0
C0
C0
C0
C0
C0
C0
ENDCHAR
STARTCHAR $00CE
ENCODING 206
SWIDTH 270 0
DWIDTH 5 0
BBX 5 15 -1 0
BITMAP
30
F8
C8
00
70
70
70
70
70
70
70
70
70
70
20
ENDCHAR
STARTCHAR $00CF
ENCODING 207
SWIDTH 270 0
DWIDTH 5 0
BBX 5 14 -1 0
BITMAP
D8
D8
00
70
70
70
70
70
70
70
70
70
70
30
ENDCHAR
STARTCHAR $00D0
ENCODING 208
SWIDTH 585 0
DWIDTH 10 0
BBX 9 11 0 0
BITMAP
7C00
7F00
6700
6380
F180
F180
F180
6380
6780
7F00
7C00
ENDCHAR
STARTCHAR $00D1
ENCODING 209
SWIDTH 720 0
DWIDTH 12 0
BBX 9 15 1 0
BITMAP
1B00
3700
0000
0000
F180
F180
F980
D980
CD80
CD80
CF80
C780
C380
C380
C180
ENDCHAR
STARTCHAR $00D2
ENCODING 210
SWIDTH 720 0
DWIDTH 12 0
BBX 11 14 0 1
BITMAP
0C00
0600
0200
1F00
3FC0
71C0
60E0
6060
E060
6060
70E0
79C0
3FC0
0F00
ENDCHAR
STARTCHAR $00D3
ENCODING 211
SWIDTH 720 0
DWIDTH 12 0
BBX 11 15 0 0
BITMAP
0200
0700
0600
0000
3F80
3FC0
70E0
6060
6060
E060
6060
70E0
7FC0
3F80
0F00
ENDCHAR
STARTCHAR $00D4
ENCODING 212
SWIDTH 720 0
DWIDTH 12 0
BBX 11 15 0 0
BITMAP
0600
0F00
0B00
0000
3F80
3FC0
70E0
6060
6060
E060
6060
70E0
7FC0
3F80
0F00
ENDCHAR
STARTCHAR $00D5
ENCODING 213
SWIDTH 720 0
DWIDTH 12 0
BBX 11 15 0 0
BITMAP
0D80
1F00
0000
0000
3F80
3FC0
70E0
6060
6060
E060
6060
70E0
7FC0
3F80
0F00
ENDCHAR
STARTCHAR $00D6
ENCODING 214
SWIDTH 720 0
DWIDTH 12 0
BBX 11 14 0 0
BITMAP
1900
1980
0000
1F00
3FC0
71C0
60E0
6060
E060
6060
70E0
79C0
3FC0
0F00
ENDCHAR
STARTCHAR $00D7
ENCODING 215
SWIDTH 495 0
DWIDTH 8 0
BBX 6 6 1 2
BITMAP
4C
FC
78
78
FC
4C
ENDCHAR
STARTCHAR $00D8
ENCODING 216
SWIDTH 720 0
DWIDTH 12 0
BBX 11 11 0 0
BITMAP
1F20
3FE0
71C0
61E0
6360
E460
6860
78E0
79C0
7FC0
CF00
ENDCHAR
STARTCHAR $00D9
ENCODING 217
SWIDTH 630 0
DWIDTH 11 0
BBX 9 15 1 0
BITMAP
3000
3800
0800
0000
C380
C380
C380
C380
C380
C380
C380
C300
FF00
3E00
1800
ENDCHAR
STARTCHAR $00DA
ENCODING 218
SWIDTH 630 0
DWIDTH 11 0
BBX 9 15 1 0
BITMAP
0400
0C00
1000
0000
C380
C380
C380
C380
C380
C380
C380
C300
FF00
3E00
1800
ENDCHAR
STARTCHAR $00DB
ENCODING 219
SWIDTH 630 0
DWIDTH 11 0
BBX 9 15 1 0
BITMAP
1800
3E00
2200
0000
C380
C380
C380
C380
C380
C380
C380
C300
FF00
3E00
1800
ENDCHAR
STARTCHAR $00DC
ENCODING 220
SWIDTH 630 0
DWIDTH 11 0
BBX 9 14 1 0
BITMAP
7600
7600
0000
C380
C380
C380
C380
C380
C380
C380
C380
E700
7F00
3C00
ENDCHAR
STARTCHAR $00DD
ENCODING 221
SWIDTH 585 0
DWIDTH 10 0
BBX 9 15 0 0
BITMAP
0400
0E00
0800
0000
E380
7380
7700
3E00
3E00
1E00
0C00
0C00
0C00
0C00
0800
ENDCHAR
STARTCHAR $00DE
ENCODING 222
SWIDTH 540 0
DWIDTH 9 0
BBX 7 11 1 0
BITMAP
C0
C0
FC
FE
C6
C6
EE
FE
FC
C0
C0
ENDCHAR
STARTCHAR $00DF
ENCODING 223
SWIDTH 540 0
DWIDTH 9 0
BBX 7 12 1 0
BITMAP
3C
7E
66
C6
C6
CE
CE
C6
C6
CE
CE
CC
ENDCHAR
STARTCHAR $00E0
ENCODING 224
SWIDTH 585 0
DWIDTH 10 0
BBX 8 11 0 0
BITMAP
18
18
0C
00
3B
7F
7F
E3
63
7F
3B
ENDCHAR
STARTCHAR $00E1
ENCODING 225
SWIDTH 585 0
DWIDTH 10 0
BBX 8 11 0 0
BITMAP
04
0C
18
00
3B
7F
7F
E3
63
7F
3B
ENDCHAR
STARTCHAR $00E2
ENCODING 226
SWIDTH 585 0
DWIDTH 10 0
BBX 8 10 0 1
BITMAP
18
1C
36
00
3F
7F
E3
63
7F
3F
ENDCHAR
STARTCHAR $00E3
ENCODING 227
SWIDTH 585 0
DWIDTH 10 0
BBX 8 10 0 1
BITMAP
3A
3E
00
00
3F
7F
E3
63
7F
3F
ENDCHAR
STARTCHAR $00E4
ENCODING 228
SWIDTH 585 0
DWIDTH 10 0
BBX 8 9 0 1
BITMAP
36
36
00
3F
7F
63
E3
7F
3F
ENDCHAR
STARTCHAR $00E5
ENCODING 229
SWIDTH 585 0
DWIDTH 10 0
BBX 8 11 0 0
BITMAP
1C
36
3C
1C
3B
7F
7F
E3
63
7F
3B
ENDCHAR
STARTCHAR $00E6
ENCODING 230
SWIDTH 765 0
DWIDTH 13 0
BBX 12 7 1 0
BITMAP
FBC0
DFE0
7FF0
FFE0
CE40
FFE0
71C0
ENDCHAR
STARTCHAR $00E7
ENCODING 231
SWIDTH 405 0
DWIDTH 7 0
BBX 6 10 1 -3
BITMAP
78
F8
C0
C0
F8
7C
38
30
10
70
ENDCHAR
STARTCHAR $00E8
ENCODING 232
SWIDTH 495 0
DWIDTH 8 0
BBX 7 11 0 0
BITMAP
10
38
0C
00
3C
7E
66
FE
60
7E
3E
ENDCHAR
STARTCHAR $00E9
ENCODING 233
SWIDTH 495 0
DWIDTH 8 0
BBX 7 11 0 0
BITMAP
08
1C
30
00
3C
7E
66
FE
60
7E
3E
ENDCHAR
STARTCHAR $00EA
ENCODING 234
SWIDTH 495 0
DWIDTH 8 0
BBX 7 10 0 1
BITMAP
18
3C
24
00
3C
66
FE
60
76
3E
ENDCHAR
STARTCHAR $00EB
ENCODING 235
SWIDTH 495 0
DWIDTH 8 0
BBX 7 9 0 1
BITMAP
7E
76
00
3C
66
7E
FE
64
3E
ENDCHAR
STARTCHAR $00EC
ENCODING 236
SWIDTH 225 0
DWIDTH 4 0
BBX 3 11 0 0
BITMAP
40
E0
60
00
60
60
60
60
60
60
60
ENDCHAR
STARTCHAR $00ED
ENCODING 237
SWIDTH 225 0
DWIDTH 4 0
BBX 3 11 0 0
BITMAP
20
60
C0
00
60
60
60
60
60
60
60
ENDCHAR
STARTCHAR $00EE
ENCODING 238
SWIDTH 225 0
DWIDTH 4 0
BBX 5 10 -1 1
BITMAP
60
F8
C8
00
70
70
70
70
70
70
ENDCHAR
STARTCHAR $00EF
ENCODING 239
SWIDTH 225 0
DWIDTH 4 0
BBX 5 9 -1 1
BITMAP
D8
D8
00
70
70
70
70
70
70
ENDCHAR
STARTCHAR $00F0
ENCODING 240
SWIDTH 540 0
DWIDTH 9 0
BBX 8 12 1 0
BITMAP
48
78
7C
7C
0E
7E
FE
C7
C7
FE
7E
3C
ENDCHAR
STARTCHAR $00F1
ENCODING 241
SWIDTH 540 0
DWIDTH 9 0
BBX 7 10 1 1
BITMAP
76
7C
00
00
FC
EE
C6
C6
C6
C6
ENDCHAR
STARTCHAR $00F2
ENCODING 242
SWIDTH 495 0
DWIDTH 8 0
BBX 8 11 0 0
BITMAP
10
18
0C
00
3C
7E
7F
E7
67
7E
3C
ENDCHAR
STARTCHAR $00F3
ENCODING 243
SWIDTH 495 0
DWIDTH 8 0
BBX 8 11 0 0
BITMAP
08
1C
30
00
3C
7E
7F
E7
67
7E
3C
ENDCHAR
STARTCHAR $00F4
ENCODING 244
SWIDTH 495 0
DWIDTH 8 0
BBX 8 10 0 1
BITMAP
18
3C
24
00
3C
7E
E7
67
7E
3C
ENDCHAR
STARTCHAR $00F5
ENCODING 245
SWIDTH 495 0
DWIDTH 8 0
BBX 8 10 0 1
BITMAP
3A
7C
00
00
3C
7E
E7
67
7E
3C
ENDCHAR
STARTCHAR $00F6
ENCODING 246
SWIDTH 495 0
DWIDTH 8 0
BBX 8 9 0 1
BITMAP
76
76
00
3C
7E
67
E7
7E
3C
ENDCHAR
STARTCHAR $00F7
ENCODING 247
SWIDTH 540 0
DWIDTH 9 0
BBX 7 8 1 1
BITMAP
10
30
00
FE
FE
00
10
10
ENDCHAR
STARTCHAR $00F8
ENCODING 248
SWIDTH 495 0
DWIDTH 8 0
BBX 8 7 0 0
BITMAP
3F
7E
6F
E7
7F
7C
98
ENDCHAR
STARTCHAR $00F9
ENCODING 249
SWIDTH 540 0
DWIDTH 9 0
BBX 7 11 1 0
BITMAP
10
38
08
00
C6
C6
C6
C6
CE
FE
78
ENDCHAR
STARTCHAR $00FA
ENCODING 250
SWIDTH 540 0
DWIDTH 9 0
BBX 7 11 1 0
BITMAP
18
18
30
00
C6
C6
C6
C6
CE
FE
78
ENDCHAR
STARTCHAR $00FB
ENCODING 251
SWIDTH 540 0
DWIDTH 9 0
BBX 7 10 1 1
BITMAP
18
7C
44
00
C6
C6
C6
C6
FE
7C
ENDCHAR
STARTCHAR $00FC
ENCODING 252
SWIDTH 540 0
DWIDTH 9 0
BBX 7 9 1 1
BITMAP
6E
6C
00
C6
C6
C6
C6
FE
7C
ENDCHAR
STARTCHAR $00FD
ENCODING 253
SWIDTH 495 0
DWIDTH 8 0
BBX 8 15 0 -4
BITMAP
08
1C
30
00
C3
67
66
76
3C
3C
38
18
38
30
20
ENDCHAR
STARTCHAR $00FE
ENCODING 254
SWIDTH 540 0
DWIDTH 9 0
BBX 8 15 1 -3
BITMAP
C0
C0
C0
C0
C0
DC
FE
E7
C7
FF
FE
CC
C0
C0
C0
ENDCHAR
STARTCHAR $00FF
ENCODING 255
SWIDTH 495 0
DWIDTH 8 0
BBX 8 13 0 -3
BITMAP
76
76
00
C3
67
76
7E
3C
3C
18
38
30
70
ENDCHAR
STARTCHAR $0100
ENCODING 256
SWIDTH 675 0
DWIDTH 11 0
BBX 11 13 0 1
BITMAP
1F00
0000
0C00
0E00
1E00
1F00
1B00
3380
7B80
7F80
7FC0
E0C0
E0E0
ENDCHAR
STARTCHAR $0101
ENCODING 257
SWIDTH 540 0
DWIDTH 9 0
BBX 8 9 0 1
BITMAP
7E
00
00
3F
7F
63
E3
7F
3F
ENDCHAR
STARTCHAR $0102
ENCODING 258
SWIDTH 675 0
DWIDTH 11 0
BBX 11 14 0 0
BITMAP
1B00
1E00
0000
0E00
0E00
1E00
1F00
3B00
3180
7F80
7F80
7FC0
E0C0
E0E0
ENDCHAR
STARTCHAR $0103
ENCODING 259
SWIDTH 540 0
DWIDTH 9 0
BBX 8 11 0 0
BITMAP
62
3E
1C
00
3B
7F
7F
E3
63
7F
3B
ENDCHAR
STARTCHAR $0104
ENCODING 260
SWIDTH 675 0
DWIDTH 11 0
BBX 11 15 0 -4
BITMAP
0E00
0E00
1E00
1F00
3B00
3380
7B80
7F80
7FC0
E0C0
E0E0
0080
0100
01C0
0080
ENDCHAR
STARTCHAR $0105
ENCODING 261
SWIDTH 540 0
DWIDTH 9 0
BBX 8 10 0 -3
BITMAP
3B
7F
63
E3
7F
3F
1B
02
06
07
ENDCHAR
STARTCHAR $0106
ENCODING 262
SWIDTH 630 0
DWIDTH 11 0
BBX 9 15 1 0
BITMAP
0200
0600
0C00
0000
3F00
7F80
F100
E000
C000
C000
E000
E000
7F00
3F80
0F00
ENDCHAR
STARTCHAR $0107
ENCODING 263
SWIDTH 405 0
DWIDTH 7 0
BBX 6 11 1 0
BITMAP
18
18
30
00
38
7C
F8
C0
C0
F8
78
ENDCHAR
STARTCHAR $0108
ENCODING 264
SWIDTH 630 0
DWIDTH 11 0
BBX 9 15 1 0
BITMAP
0C00
1E00
1200
0000
3F00
7F80
F100
E000
C000
C000
E000
E000
7F00
3F80
0F00
ENDCHAR
STARTCHAR $0109
ENCODING 265
SWIDTH 405 0
DWIDTH 7 0
BBX 6 10 1 1
BITMAP
20
F8
C8
00
7C
F8
C0
C0
F8
78
ENDCHAR
STARTCHAR $010A
ENCODING 266
SWIDTH 630 0
DWIDTH 11 0
BBX 9 14 1 0
BITMAP
0C00
0C00
0000
1F00
3F80
7100
E000
C000
C000
E000
E000
7B00
3F80
0F00
ENDCHAR
STARTCHAR $010B
ENCODING 267
SWIDTH 405 0
DWIDTH 7 0
BBX 6 10 1 1
BITMAP
30
30
00
00
7C
F8
C0
C0
F8
78
ENDCHAR
STARTCHAR $010C
ENCODING 268
SWIDTH 630 0
DWIDTH 11 0
BBX 9 14 1 0
BITMAP
1200
1E00
0000
1F00
3F80
7100
E000
C000
C000
E000
E000
7B00
3F80
0F00
ENDCHAR
STARTCHAR $010D
ENCODING 269
SWIDTH 405 0
DWIDTH 7 0
BBX 6 11 1 0
BITMAP
48
F8
70
00
38
7C
F8
C0
C0
F8
78
ENDCHAR
STARTCHAR $010E
ENCODING 270
SWIDTH 585 0
DWIDTH 10 0
BBX 8 14 1 0
BITMAP
2C
18
00
F8
FE
CE
C7
C3
C3
C3
C7
CE
FE
F8
ENDCHAR
STARTCHAR $010F
ENCODING 271
SWIDTH 630 0
DWIDTH 11 0
BBX 11 12 0 0
BITMAP
0360
0360
0320
0300
0300
3B00
7F00
6300
E300
7F00
7F00
3B00
ENDCHAR
STARTCHAR $0110
ENCODING 272
SWIDTH 585 0
DWIDTH 10 0
BBX 9 11 0 0
BITMAP
7C00
7F00
6700
6380
F180
F180
F180
6380
6780
7F00
7C00
ENDCHAR
STARTCHAR $0111
ENCODING 273
SWIDTH 540 0
DWIDTH 9 0
BBX 9 12 0 0
BITMAP
0300
0700
0F80
0300
0300
3B00
7F00
6300
E300
7F00
7F00
3B00
ENDCHAR
STARTCHAR $0112
ENCODING 274
SWIDTH 540 0
DWIDTH 9 0
BBX 7 13 1 1
BITMAP
7C
00
FC
FE
C0
C0
E0
FE
FC
C0
C0
FE
FE
ENDCHAR
STARTCHAR $0113
ENCODING 275
SWIDTH 495 0
DWIDTH 8 0
BBX 7 9 0 1
BITMAP
7E
00
00
3C
66
7E
FE
64
3E
ENDCHAR
STARTCHAR $0114
ENCODING 276
SWIDTH 540 0
DWIDTH 9 0
BBX 7 14 1 0
BITMAP
4C
78
00
FE
FE
C0
C0
FC
FE
E0
C0
C0
FE
FC
ENDCHAR
STARTCHAR $0115
ENCODING 277
SWIDTH 495 0
DWIDTH 8 0
BBX 7 10 0 1
BITMAP
24
7E
3C
00
3C
66
FE
60
76
3E
ENDCHAR
STARTCHAR $0116
ENCODING 278
SWIDTH 540 0
DWIDTH 9 0
BBX 7 14 1 0
BITMAP
30
30
00
FE
FE
C0
C0
FC
FE
E0
C0
C0
FE
FC
ENDCHAR
STARTCHAR $0117
ENCODING 279
SWIDTH 495 0
DWIDTH 8 0
BBX 7 10 0 1
BITMAP
18
18
00
00
3C
66
FE
60
76
3E
ENDCHAR
STARTCHAR $0118
ENCODING 280
SWIDTH 540 0
DWIDTH 9 0
BBX 7 15 1 -4
BITMAP
FE
FE
C0
C0
FC
FE
FC
C0
C0
FE
FC
10
10
1C
08
ENDCHAR
STARTCHAR $0119
ENCODING 281
SWIDTH 495 0
DWIDTH 8 0
BBX 7 10 0 -3
BITMAP
3C
66
7E
FE
64
3E
1C
08
18
1C
ENDCHAR
STARTCHAR $011A
ENCODING 282
SWIDTH 540 0
DWIDTH 9 0
BBX 7 14 1 0
BITMAP
48
38
00
FE
FE
C0
C0
FC
FE
E0
C0
C0
FE
FC
ENDCHAR
STARTCHAR $011B
ENCODING 283
SWIDTH 495 0
DWIDTH 8 0
BBX 7 11 0 0
BITMAP
44
7C
38
00
3C
7E
66
FE
60
7E
3E
ENDCHAR
STARTCHAR $011C
ENCODING 284
SWIDTH 720 0
DWIDTH 12 0
BBX 11 15 0 0
BITMAP
0600
0F00
0B00
0000
3F80
7FC0
70C0
6000
E000
E3E0
6060
70E0
7FC0
3F80
0F00
ENDCHAR
STARTCHAR $011D
ENCODING 285
SWIDTH 585 0
DWIDTH 10 0
BBX 8 14 0 -4
BITMAP
08
1C
36
00
3F
7F
E3
63
7F
3F
03
43
7F
3C
ENDCHAR
STARTCHAR $011E
ENCODING 286
SWIDTH 720 0
DWIDTH 12 0
BBX 11 14 0 0
BITMAP
1B80
0F00
0000
1F00
3FC0
71C0
6000
E000
E3E0
60E0
70E0
79C0
3FC0
0F00
ENDCHAR
STARTCHAR $011F
ENCODING 287
SWIDTH 540 0
DWIDTH 9 0
BBX 8 15 0 -4
BITMAP
62
7E
1C
00
3B
7F
7F
E3
63
7F
3B
03
7F
7E
18
ENDCHAR
STARTCHAR $0120
ENCODING 288
SWIDTH 720 0
DWIDTH 12 0
BBX 11 14 0 0
BITMAP
0600
0600
0000
1F00
3FC0
71C0
6000
E000
E3E0
60E0
70E0
79C0
3FC0
0F00
ENDCHAR
STARTCHAR $0121
ENCODING 289
SWIDTH 540 0
DWIDTH 9 0
BBX 8 14 0 -4
BITMAP
18
18
00
00
3F
7F
E3
63
7F
3F
03
43
7F
3C
ENDCHAR
STARTCHAR $0122
ENCODING 290
SWIDTH 720 0
DWIDTH 12 0
BBX 11 15 0 -4
BITMAP
1F00
3FC0
71C0
6000
E000
E3E0
63E0
60E0
79C0
3FC0
0F00
0000
0600
0600
0600
ENDCHAR
STARTCHAR $0123
ENCODING 291
SWIDTH 585 0
DWIDTH 10 0
BBX 8 15 0 -4
BITMAP
08
08
08
00
3B
7F
7F
E3
63
7F
3B
03
7F
7E
18
ENDCHAR
STARTCHAR $0124
ENCODING 292
SWIDTH 630 0
DWIDTH 11 0
BBX 9 15 1 0
BITMAP
1800
3E00
2200
0000
C380
C380
C380
C380
FF80
FF80
C380
C380
C380
C380
C300
ENDCHAR
STARTCHAR $0125
ENCODING 293
SWIDTH 540 0
DWIDTH 9 0
BBX 7 16 1 0
BITMAP
10
38
6C
00
C0
C0
C0
C0
C0
D8
FE
E6
C6
C6
C6
C6
ENDCHAR
STARTCHAR $0126
ENCODING 294
SWIDTH 630 0
DWIDTH 11 0
BBX 9 11 0 0
BITMAP
6180
FF80
FF80
6180
7F80
7F80
7F80
6180
6180
6180
6180
ENDCHAR
STARTCHAR $0127
ENCODING 295
SWIDTH 540 0
DWIDTH 9 0
BBX 8 12 0 0
BITMAP
60
F0
F0
60
60
6E
7F
63
63
63
63
63
ENDCHAR
STARTCHAR $0128
ENCODING 296
SWIDTH 270 0
DWIDTH 5 0
BBX 6 14 -1 0
BITMAP
6C
F8
00
70
70
70
70
70
70
70
70
70
70
30
ENDCHAR
STARTCHAR $0129
ENCODING 297
SWIDTH 225 0
DWIDTH 4 0
BBX 6 10 -1 1
BITMAP
74
F8
00
00
30
30
30
30
30
30
ENDCHAR
STARTCHAR $012A
ENCODING 298
SWIDTH 270 0
DWIDTH 5 0
BBX 5 13 -1 1
BITMAP
F8
00
30
70
70
70
70
70
70
70
70
70
70
ENDCHAR
STARTCHAR $012B
ENCODING 299
SWIDTH 225 0
DWIDTH 4 0
BBX 5 9 -1 1
BITMAP
F8
00
00
70
70
70
70
70
70
ENDCHAR
STARTCHAR $012C
ENCODING 300
SWIDTH 270 0
DWIDTH 5 0
BBX 5 14 -1 0
BITMAP
D8
78
00
70
70
70
70
70
70
70
70
70
70
30
ENDCHAR
STARTCHAR $012D
ENCODING 301
SWIDTH 225 0
DWIDTH 4 0
BBX 6 10 -1 1
BITMAP
48
FC
70
00
30
30
30
30
30
30
ENDCHAR
STARTCHAR $012E
ENCODING 302
SWIDTH 270 0
DWIDTH 5 0
BBX 3 15 0 -4
BITMAP
60
60
60
60
60
60
60
60
60
60
60
40
80
E0
40
ENDCHAR
STARTCHAR $012F
ENCODING 303
SWIDTH 270 0
DWIDTH 5 0
BBX 4 15 0 -4
BITMAP
60
70
60
00
60
60
60
60
60
60
60
40
80
E0
40
ENDCHAR
STARTCHAR $0130
ENCODING 304
SWIDTH 270 0
DWIDTH 5 0
BBX 2 14 1 0
BITMAP
40
C0
00
C0
C0
C0
C0
C0
C0
C0
C0
C0
C0
C0
ENDCHAR
STARTCHAR $0131
ENCODING 305
SWIDTH 225 0
DWIDTH 4 0
BBX 2 7 1 0
BITMAP
C0
C0
C0
C0
C0
C0
C0
ENDCHAR
STARTCHAR $0134
ENCODING 308
SWIDTH 405 0
DWIDTH 7 0
BBX 7 15 0 0
BITMAP
18
3E
22
00
1C
1C
1C
1C
1C
1C
1C
1C
F8
F8
60
ENDCHAR
STARTCHAR $0135
ENCODING 309
SWIDTH 270 0
DWIDTH 5 0
BBX 5 14 -1 -4
BITMAP
30
F8
48
00
70
70
70
70
70
70
70
70
F0
E0
ENDCHAR
STARTCHAR $0136
ENCODING 310
SWIDTH 585 0
DWIDTH 10 0
BBX 8 15 1 -4
BITMAP
C7
CE
CC
FC
F8
F0
F8
DC
CE
CE
C7
00
18
18
10
ENDCHAR
STARTCHAR $0137
ENCODING 311
SWIDTH 495 0
DWIDTH 8 0
BBX 7 16 1 -4
BITMAP
C0
C0
C0
C0
C0
CC
D8
F8
F8
F8
CC
C6
30
30
10
30
ENDCHAR
STARTCHAR $0138
ENCODING 312
SWIDTH 540 0
DWIDTH 9 0
BBX 7 7 1 0
BITMAP
CC
D8
F0
F8
FC
CE
C6
ENDCHAR
STARTCHAR $0139
ENCODING 313
SWIDTH 495 0
DWIDTH 8 0
BBX 7 15 1 0
BITMAP
18
18
30
00
C0
C0
C0
C0
C0
C0
C0
C0
FC
FE
FC
ENDCHAR
STARTCHAR $013A
ENCODING 314
SWIDTH 270 0
DWIDTH 5 0
BBX 4 16 1 0
BITMAP
20
70
C0
00
C0
C0
C0
C0
C0
C0
C0
C0
C0
C0
C0
C0
ENDCHAR
STARTCHAR $013B
ENCODING 315
SWIDTH 495 0
DWIDTH 8 0
BBX 7 15 1 -3
BITMAP
C0
C0
C0
C0
C0
C0
C0
C0
C0
FE
FC
00
30
30
10
ENDCHAR
STARTCHAR $013C
ENCODING 316
SWIDTH 270 0
DWIDTH 5 0
BBX 2 16 1 -4
BITMAP
C0
C0
C0
C0
C0
C0
C0
C0
C0
C0
C0
C0
C0
C0
C0
C0
ENDCHAR
STARTCHAR $013D
ENCODING 317
SWIDTH 495 0
DWIDTH 8 0
BBX 7 11 1 0
BITMAP
C2
C2
C2
C0
C0
C0
C0
C0
C0
FE
FC
ENDCHAR
STARTCHAR $013E
ENCODING 318
SWIDTH 270 0
DWIDTH 5 0
BBX 5 12 1 0
BITMAP
C8
C8
C8
C0
C0
C0
C0
C0
C0
C0
C0
C0
ENDCHAR
STARTCHAR $013F
ENCODING 319
SWIDTH 495 0
DWIDTH 8 0
BBX 7 11 1 0
BITMAP
C0
C0
C0
C0
CC
CC
C8
C0
C0
FE
FC
ENDCHAR
STARTCHAR $0140
ENCODING 320
SWIDTH 405 0
DWIDTH 7 0
BBX 6 12 1 0
BITMAP
C0
C0
C0
C0
D8
DC
D8
C0
C0
C0
C0
C0
ENDCHAR
STARTCHAR $0141
ENCODING 321
SWIDTH 495 0
DWIDTH 8 0
BBX 7 11 0 0
BITMAP
70
70
78
78
70
70
F0
70
70
7E
3E
ENDCHAR
STARTCHAR $0142
ENCODING 322
SWIDTH 270 0
DWIDTH 5 0
BBX 4 12 0 0
BITMAP
70
70
70
70
70
70
F0
F0
70
70
70
20
ENDCHAR
STARTCHAR $0143
ENCODING 323
SWIDTH 720 0
DWIDTH 12 0
BBX 9 15 1 0
BITMAP
0200
0600
0800
0000
F180
F180
F980
D980
CD80
CD80
CF80
C780
C380
C380
C180
ENDCHAR
STARTCHAR $0144
ENCODING 324
SWIDTH 540 0
DWIDTH 9 0
BBX 7 11 1 0
BITMAP
04
1C
10
00
DC
FE
E6
C6
C6
C6
C6
ENDCHAR
STARTCHAR $0145
ENCODING 325
SWIDTH 720 0
DWIDTH 12 0
BBX 9 14 1 -3
BITMAP
F180
F180
F180
D980
DD80
CD80
CF80
C780
C780
C380
C380
0000
0C00
0C00
ENDCHAR
STARTCHAR $0146
ENCODING 326
SWIDTH 540 0
DWIDTH 9 0
BBX 7 11 1 -5
BITMAP
DC
EE
C6
C6
C6
C6
C2
10
30
10
10
ENDCHAR
STARTCHAR $0147
ENCODING 327
SWIDTH 720 0
DWIDTH 12 0
BBX 9 14 1 0
BITMAP
1A00
1C00
0000
F180
F180
F180
D980
DD80
CD80
CF80
C780
C780
C380
C180
ENDCHAR
STARTCHAR $0148
ENCODING 328
SWIDTH 540 0
DWIDTH 9 0
BBX 7 11 1 0
BITMAP
44
78
30
00
DC
FE
E6
C6
C6
C6
C6
ENDCHAR
STARTCHAR $014A
ENCODING 330
SWIDTH 720 0
DWIDTH 12 0
BBX 9 15 1 -4
BITMAP
F180
F180
F180
D980
DD80
CD80
CF80
C780
C780
C380
C380
0180
0380
0780
0300
ENDCHAR
STARTCHAR $014B
ENCODING 331
SWIDTH 540 0
DWIDTH 9 0
BBX 7 10 1 -3
BITMAP
DC
EE
C6
C6
C6
C6
C6
06
1E
1C
ENDCHAR
STARTCHAR $014C
ENCODING 332
SWIDTH 720 0
DWIDTH 12 0
BBX 11 14 0 0
BITMAP
0F80
0000
0000
1F00
3FC0
71C0
60E0
6060
E060
6060
70E0
79C0
3FC0
0F00
ENDCHAR
STARTCHAR $014D
ENCODING 333
SWIDTH 495 0
DWIDTH 8 0
BBX 8 9 0 1
BITMAP
7E
00
00
3C
7E
67
E7
7E
3C
ENDCHAR
STARTCHAR $014E
ENCODING 334
SWIDTH 720 0
DWIDTH 12 0
BBX 11 14 0 0
BITMAP
1B80
0F00
0000
1F00
3FC0
71C0
60E0
6060
E060
6060
70E0
79C0
3FC0
0F00
ENDCHAR
STARTCHAR $014F
ENCODING 335
SWIDTH 495 0
DWIDTH 8 0
BBX 8 10 0 1
BITMAP
24
7E
3C
00
3C
7E
E7
67
7E
3C
ENDCHAR
STARTCHAR $0150
ENCODING 336
SWIDTH 720 0
DWIDTH 12 0
BBX 11 15 0 1
BITMAP
0D80
1F00
0200
0000
3F80
3FC0
70E0
6060
6060
E060
6060
70E0
7FC0
3F80
0F00
ENDCHAR
STARTCHAR $0151
ENCODING 337
SWIDTH 495 0
DWIDTH 8 0
BBX 8 11 0 0
BITMAP
02
16
2C
00
3C
7E
7F
E7
67
7E
3C
ENDCHAR
STARTCHAR $0152
ENCODING 338
SWIDTH 810 0
DWIDTH 13 0
BBX 12 11 0 0
BITMAP
1FF0
3FF0
7380
6180
E1F0
E1F0
E1F0
6180
7B80
3FF0
0FF0
ENDCHAR
STARTCHAR $0153
ENCODING 339
SWIDTH 810 0
DWIDTH 13 0
BBX 13 7 0 0
BITMAP
3DE0
7FB0
67F0
E7F8
7F20
3FF0
18E0
ENDCHAR
STARTCHAR $0154
ENCODING 340
SWIDTH 585 0
DWIDTH 10 0
BBX 8 15 1 0
BITMAP
08
18
10
00
FC
FE
C6
C6
CE
FC
DC
CC
CE
CE
C3
ENDCHAR
STARTCHAR $0155
ENCODING 341
SWIDTH 405 0
DWIDTH 7 0
BBX 6 11 1 0
BITMAP
10
30
70
00
DC
F8
F8
C0
C0
C0
C0
ENDCHAR
STARTCHAR $0156
ENCODING 342
SWIDTH 585 0
DWIDTH 10 0
BBX 8 15 1 -4
BITMAP
FC
FE
C6
C6
C6
FC
FC
DC
CE
CE
C7
00
38
18
10
ENDCHAR
STARTCHAR $0157
ENCODING 343
SWIDTH 405 0
DWIDTH 7 0
BBX 6 11 1 -4
BITMAP
DC
F8
C0
C0
C0
C0
C0
20
70
20
20
ENDCHAR
STARTCHAR $0158
ENCODING 344
SWIDTH 585 0
DWIDTH 10 0
BBX 8 14 1 0
BITMAP
6C
38
00
FC
FE
C6
C6
C6
FC
FC
CC
CE
CE
C7
ENDCHAR
STARTCHAR $0159
ENCODING 345
SWIDTH 405 0
DWIDTH 7 0
BBX 6 11 1 0
BITMAP
98
F8
70
00
DC
F8
F8
C0
C0
C0
C0
ENDCHAR
STARTCHAR $015A
ENCODING 346
SWIDTH 540 0
DWIDTH 9 0
BBX 8 15 0 0
BITMAP
04
0E
18
00
3F
7E
70
70
3C
0F
07
03
7F
FE
1C
ENDCHAR
STARTCHAR $015B
ENCODING 347
SWIDTH 405 0
DWIDTH 7 0
BBX 6 11 1 0
BITMAP
10
30
70
00
78
F8
E0
78
1C
F8
F0
ENDCHAR
STARTCHAR $015C
ENCODING 348
SWIDTH 540 0
DWIDTH 9 0
BBX 8 15 0 0
BITMAP
18
3C
24
00
3F
7E
70
70
3C
0F
07
03
7F
FE
1C
ENDCHAR
STARTCHAR $015D
ENCODING 349
SWIDTH 450 0
DWIDTH 8 0
BBX 6 10 1 1
BITMAP
20
F8
C8
00
F8
C8
F0
1C
DC
F8
ENDCHAR
STARTCHAR $015E
ENCODING 350
SWIDTH 540 0
DWIDTH 9 0
BBX 8 15 0 -4
BITMAP
1E
7F
72
70
7C
3E
0F
03
43
FF
7E
08
04
1C
18
ENDCHAR
STARTCHAR $015F
ENCODING 351
SWIDTH 405 0
DWIDTH 7 0
BBX 6 10 1 -3
BITMAP
78
E8
E0
78
9C
F8
F0
30
10
70
ENDCHAR
STARTCHAR $0160
ENCODING 352
SWIDTH 540 0
DWIDTH 9 0
BBX 8 14 0 0
BITMAP
26
1C
18
1E
7F
70
70
7C
3E
07
03
63
FF
3C
ENDCHAR
STARTCHAR $0161
ENCODING 353
SWIDTH 405 0
DWIDTH 7 0
BBX 6 11 1 0
BITMAP
98
F8
70
00
78
F8
E0
78
1C
F8
F0
ENDCHAR
STARTCHAR $0162
ENCODING 354
SWIDTH 495 0
DWIDTH 8 0
BBX 7 15 0 -4
BITMAP
FE
FE
18
18
18
18
18
18
18
18
18
18
0C
3C
18
ENDCHAR
STARTCHAR $0163
ENCODING 355
SWIDTH 360 0
DWIDTH 6 0
BBX 6 13 0 -3
BITMAP
70
70
70
F8
F8
70
70
78
38
10
18
0C
38
ENDCHAR
STARTCHAR $0164
ENCODING 356
SWIDTH 495 0
DWIDTH 8 0
BBX 7 14 0 0
BITMAP
24
18
00
FE
FE
18
18
18
18
18
18
18
18
18
ENDCHAR
STARTCHAR $0165
ENCODING 357
SWIDTH 360 0
DWIDTH 6 0
BBX 7 10 0 1
BITMAP
06
76
74
70
F8
F8
70
70
78
38
ENDCHAR
STARTCHAR $0166
ENCODING 358
SWIDTH 495 0
DWIDTH 8 0
BBX 7 11 0 0
BITMAP
FE
FE
18
18
FE
FE
18
18
18
18
18
ENDCHAR
STARTCHAR $0167
ENCODING 359
SWIDTH 360 0
DWIDTH 6 0
BBX 5 9 0 1
BITMAP
70
70
70
F8
F8
70
F8
78
38
ENDCHAR
STARTCHAR $0168
ENCODING 360
SWIDTH 630 0
DWIDTH 11 0
BBX 9 14 1 0
BITMAP
3A00
7E00
0000
C380
C380
C380
C380
C380
C380
C380
C380
E700
7F00
3C00
ENDCHAR
STARTCHAR $0169
ENCODING 361
SWIDTH 540 0
DWIDTH 9 0
BBX 7 10 1 1
BITMAP
76
7C
00
00
C6
C6
C6
C6
FE
7C
ENDCHAR
STARTCHAR $016A
ENCODING 362
SWIDTH 630 0
DWIDTH 11 0
BBX 9 13 1 1
BITMAP
7E00
0000
C380
C380
C380
C380
C380
C380
C380
C380
E700
7F00
3C00
ENDCHAR
STARTCHAR $016B
ENCODING 363
SWIDTH 540 0
DWIDTH 9 0
BBX 7 9 1 1
BITMAP
7C
00
00
C6
C6
C6
C6
FE
7C
ENDCHAR
STARTCHAR $016C
ENCODING 364
SWIDTH 630 0
DWIDTH 11 0
BBX 9 14 1 0
BITMAP
2600
1C00
0000
C380
C380
C380
C380
C380
C380
C380
C380
E700
7F00
3C00
ENDCHAR
STARTCHAR $016D
ENCODING 365
SWIDTH 540 0
DWIDTH 9 0
BBX 7 10 1 1
BITMAP
44
7C
38
00
C6
C6
C6
C6
FE
7C
ENDCHAR
STARTCHAR $016E
ENCODING 366
SWIDTH 630 0
DWIDTH 11 0
BBX 9 15 1 0
BITMAP
1800
3400
1C00
0000
C380
C380
C380
C380
C380
C380
C380
C300
FF00
3E00
1800
ENDCHAR
STARTCHAR $016F
ENCODING 367
SWIDTH 540 0
DWIDTH 9 0
BBX 7 11 1 0
BITMAP
38
6C
3C
38
C6
C6
C6
C6
CE
FE
78
ENDCHAR
STARTCHAR $0170
ENCODING 368
SWIDTH 630 0
DWIDTH 11 0
BBX 9 14 1 0
BITMAP
1200
6C00
0000
C380
C380
C380
C380
C380
C380
C380
C380
E700
7F00
3C00
ENDCHAR
STARTCHAR $0171
ENCODING 369
SWIDTH 540 0
DWIDTH 9 0
BBX 7 11 1 0
BITMAP
14
3C
48
00
C6
C6
C6
C6
CE
FE
78
ENDCHAR
STARTCHAR $0172
ENCODING 370
SWIDTH 630 0
DWIDTH 11 0
BBX 9 15 1 -4
BITMAP
C380
C380
C380
C380
C380
C380
C380
C380
E700
7F00
3E00
1000
1000
1C00
0800
ENDCHAR
STARTCHAR $0173
ENCODING 371
SWIDTH 540 0
DWIDTH 9 0
BBX 7 10 1 -3
BITMAP
C6
C6
C6
C6
FE
7C
38
30
30
38
ENDCHAR
STARTCHAR $0174
ENCODING 372
SWIDTH 900 0
DWIDTH 15 0
BBX 14 15 0 0
BITMAP
0300
07C0
0440
0000
E31C
639C
7798
7798
77B8
77B8
3EF0
3CF0
3CF0
3C70
1860
ENDCHAR
STARTCHAR $0175
ENCODING 373
SWIDTH 720 0
DWIDTH 12 0
BBX 12 10 0 1
BITMAP
0600
1F00
0100
0000
E670
6E60
6FE0
7BC0
79C0
31C0
ENDCHAR
STARTCHAR $0176
ENCODING 374
SWIDTH 585 0
DWIDTH 10 0
BBX 9 15 0 0
BITMAP
1800
3E00
2200
0000
E380
7380
7700
3E00
3E00
1E00
0C00
0C00
0C00
0C00
0800
ENDCHAR
STARTCHAR $0177
ENCODING 375
SWIDTH 495 0
DWIDTH 8 0
BBX 8 14 0 -4
BITMAP
18
3C
24
00
E7
66
76
7E
3C
38
18
38
30
30
ENDCHAR
STARTCHAR $0178
ENCODING 376
SWIDTH 585 0
DWIDTH 10 0
BBX 9 14 0 0
BITMAP
3600
3600
0000
E380
E380
7700
3F00
3E00
1E00
1C00
0C00
0C00
0C00
0C00
ENDCHAR
STARTCHAR $0179
ENCODING 377
SWIDTH 630 0
DWIDTH 11 0
BBX 9 15 0 0
BITMAP
0200
0E00
0800
0000
7F80
7F80
0700
0E00
0E00
1C00
3800
3800
7F80
7F80
FF80
ENDCHAR
STARTCHAR $017A
ENCODING 378
SWIDTH 450 0
DWIDTH 8 0
BBX 6 11 0 0
BITMAP
08
1C
30
00
7C
7C
18
38
70
7C
FC
ENDCHAR
STARTCHAR $017B
ENCODING 379
SWIDTH 630 0
DWIDTH 11 0
BBX 9 14 0 0
BITMAP
0C00
0C00
0000
7F80
7F80
0700
0E00
0E00
1C00
1800
3800
7800
7F80
FF80
ENDCHAR
STARTCHAR $017C
ENCODING 380
SWIDTH 450 0
DWIDTH 8 0
BBX 7 10 0 1
BITMAP
10
30
00
00
7E
1C
18
38
70
FE
ENDCHAR
STARTCHAR $017D
ENCODING 381
SWIDTH 630 0
DWIDTH 11 0
BBX 9 14 0 0
BITMAP
1200
1C00
0000
7F80
7F80
0700
0E00
0E00
1C00
1800
3800
7800
7F80
FF80
ENDCHAR
STARTCHAR $017E
ENCODING 382
SWIDTH 450 0
DWIDTH 8 0
BBX 6 11 0 0
BITMAP
44
7C
30
00
7C
7C
18
38
70
7C
FC
ENDCHAR
STARTCHAR $018F
ENCODING 399
SWIDTH 675 0
DWIDTH 11 0
BBX 10 11 0 0
BITMAP
1E00
7F80
73C0
00C0
00C0
FFC0
FFC0
60C0
71C0
3F80
0E00
ENDCHAR
STARTCHAR $0192
ENCODING 402
SWIDTH 360 0
DWIDTH 6 0
BBX 9 15 -2 -3
BITMAP
0380
0700
0E00
0E00
0C00
3E00
3E00
1C00
1C00
1800
1800
1800
3800
7800
F000
ENDCHAR
STARTCHAR $01A0
ENCODING 416
SWIDTH 720 0
DWIDTH 12 0
BBX 12 12 0 0
BITMAP
0030
1F90
3FF0
70C0
60E0
6060
E060
6060
70E0
7FC0
3FC0
0F00
ENDCHAR
STARTCHAR $01A1
ENCODING 417
SWIDTH 495 0
DWIDTH 8 0
BBX 9 8 0 0
BITMAP
0180
1980
3F80
7E00
E700
6700
7E00
3C00
ENDCHAR
STARTCHAR $01AF
ENCODING 431
SWIDTH 765 0
DWIDTH 13 0
BBX 12 12 1 1
BITMAP
0030
C3F0
C3E0
C380
C380
C380
C380
C380
C380
E700
7F00
3E00
ENDCHAR
STARTCHAR $01B0
ENCODING 432
SWIDTH 675 0
DWIDTH 11 0
BBX 10 8 1 0
BITMAP
0040
C3C0
C7C0
C600
C600
CE00
FE00
7800
ENDCHAR
STARTCHAR $01C4
ENCODING 452
SWIDTH 1215 0
DWIDTH 20 0
BBX 18 15 1 1
BITMAP
001900
001F00
000600
000000
F83FC0
FE7FC0
FE3F80
C70380
C30700
C30700
C30E00
C31C00
C71C00
FE3FC0
FC7FC0
ENDCHAR
STARTCHAR $01C5
ENCODING 453
SWIDTH 1035 0
DWIDTH 17 0
BBX 16 11 1 0
BITMAP
F822
FE1E
CE0C
C700
C33F
C33E
C30E
C71C
CF18
FE3F
F83F
ENDCHAR
STARTCHAR $01C6
ENCODING 454
SWIDTH 990 0
DWIDTH 16 0
BBX 16 12 0 0
BITMAP
0300
0336
031E
030C
0300
3B3F
7F3E
630E
E31C
7F18
7F3F
3B3F
ENDCHAR
STARTCHAR $01C7
ENCODING 455
SWIDTH 900 0
DWIDTH 15 0
BBX 13 11 1 0
BITMAP
C038
C038
C038
C038
C038
C038
C038
C038
C130
FFF0
FCE0
ENDCHAR
STARTCHAR $01C8
ENCODING 456
SWIDTH 765 0
DWIDTH 13 0
BBX 11 15 1 -4
BITMAP
C040
C0E0
C040
C000
C0C0
C0C0
C0C0
C0C0
C0C0
FEC0
FCC0
00C0
01C0
03C0
0380
ENDCHAR
STARTCHAR $01C9
ENCODING 457
SWIDTH 495 0
DWIDTH 8 0
BBX 7 15 1 -3
BITMAP
C0
CE
CC
C4
C0
CC
CE
CE
CE
CE
CE
CE
0E
1E
3C
ENDCHAR
STARTCHAR $01CA
ENCODING 458
SWIDTH 1125 0
DWIDTH 18 0
BBX 17 11 1 0
BITMAP
F18380
F18380
F18380
D98380
DD8380
CD8380
CF8380
C78380
C79B80
C39F00
C38E00
ENDCHAR
STARTCHAR $01CB
ENCODING 459
SWIDTH 990 0
DWIDTH 16 0
BBX 15 15 1 -4
BITMAP
F18C
F18E
F18C
D980
DD8C
CD8E
CF8E
C78E
C78E
C38E
C38E
000E
003C
003C
0018
ENDCHAR
STARTCHAR $01CC
ENCODING 460
SWIDTH 810 0
DWIDTH 13 0
BBX 12 15 1 -4
BITMAP
0060
0070
0060
0000
DC60
FE70
E670
C670
C670
C670
C670
0070
00F0
01E0
00C0
ENDCHAR
STARTCHAR $01CE
ENCODING 462
SWIDTH 585 0
DWIDTH 10 0
BBX 8 11 0 0
BITMAP
22
3E
0C
00
3B
7F
7F
E3
63
7F
3B
ENDCHAR
STARTCHAR $01D0
ENCODING 464
SWIDTH 225 0
DWIDTH 4 0
BBX 5 11 -1 0
BITMAP
98
F8
70
00
20
70
70
70
70
70
30
ENDCHAR
STARTCHAR $01D2
ENCODING 466
SWIDTH 495 0
DWIDTH 8 0
BBX 8 11 0 0
BITMAP
22
3E
18
00
3C
7E
7F
E7
67
7E
3C
ENDCHAR
STARTCHAR $01D4
ENCODING 468
SWIDTH 540 0
DWIDTH 9 0
BBX 7 11 1 0
BITMAP
44
7C
18
00
C6
C6
C6
C6
CE
FE
78
ENDCHAR
STARTCHAR $01D6
ENCODING 470
SWIDTH 540 0
DWIDTH 9 0
BBX 7 13 1 1
BITMAP
7E
00
00
00
6E
2C
00
C6
C6
C6
CE
FE
78
ENDCHAR
STARTCHAR $01D8
ENCODING 472
SWIDTH 540 0
DWIDTH 9 0
BBX 7 14 1 0
BITMAP
18
18
30
00
64
6C
00
C6
C6
C6
C6
CE
FE
38
ENDCHAR
STARTCHAR $01DA
ENCODING 474
SWIDTH 540 0
DWIDTH 9 0
BBX 7 14 1 0
BITMAP
44
7C
10
00
64
6C
00
C6
C6
C6
C6
CE
FE
38
ENDCHAR
STARTCHAR $01DC
ENCODING 476
SWIDTH 540 0
DWIDTH 9 0
BBX 7 14 1 0
BITMAP
10
38
08
00
64
6C
00
C6
C6
C6
C6
CE
FE
38
ENDCHAR
STARTCHAR $01E6
ENCODING 486
SWIDTH 720 0
DWIDTH 12 0
BBX 11 14 0 0
BITMAP
0900
0F00
0000
1F00
3FC0
71C0
6000
E000
E3E0
60E0
70E0
79C0
3FC0
0F00
ENDCHAR
STARTCHAR $01E7
ENCODING 487
SWIDTH 585 0
DWIDTH 10 0
BBX 8 15 0 -4
BITMAP
22
3E
0C
00
3B
7F
7F
E3
63
7F
3B
03
7F
7E
18
ENDCHAR
STARTCHAR $01EA
ENCODING 490
SWIDTH 720 0
DWIDTH 12 0
BBX 11 15 0 -4
BITMAP
1F00
3FC0
71C0
60E0
6060
E060
6060
60E0
79C0
3FC0
0F00
0200
0600
0700
0300
ENDCHAR
STARTCHAR $01EB
ENCODING 491
SWIDTH 495 0
DWIDTH 8 0
BBX 8 10 0 -3
BITMAP
3C
7E
67
E7
7F
3C
1C
08
08
0E
ENDCHAR
STARTCHAR $01FA
ENCODING 506
SWIDTH 675 0
DWIDTH 11 0
BBX 11 18 0 1
BITMAP
0200
0600
0C00
0000
0E00
0A00
0C00
0C00
0E00
1E00
1F00
1B00
3300
3380
7F80
7F80
61C0
E0E0
ENDCHAR
STARTCHAR $01FB
ENCODING 507
SWIDTH 585 0
DWIDTH 10 0
BBX 8 15 0 1
BITMAP
0C
18
00
00
3C
36
1C
00
3B
7F
63
E3
7F
3F
1B
ENDCHAR
STARTCHAR $01FC
ENCODING 508
SWIDTH 855 0
DWIDTH 14 0
BBX 13 15 0 1
BITMAP
0020
0060
00C0
0000
07F8
07F8
0FF8
0F80
1D80
19F8
39F8
3B80
7F80
73F8
E1F8
ENDCHAR
STARTCHAR $01FD
ENCODING 509
SWIDTH 765 0
DWIDTH 13 0
BBX 12 11 1 0
BITMAP
0200
0600
0E00
0000
F180
FBE0
0FE0
FFF0
CE00
FFE0
73C0
ENDCHAR
STARTCHAR $01FE
ENCODING 510
SWIDTH 720 0
DWIDTH 12 0
BBX 11 15 0 1
BITMAP
0200
0600
0800
0000
3FE0
3FC0
71E0
6160
6260
E460
6860
70E0
7FC0
7F80
8F00
ENDCHAR
STARTCHAR $01FF
ENCODING 511
SWIDTH 495 0
DWIDTH 8 0
BBX 8 11 0 0
BITMAP
08
1C
30
00
3D
7E
7F
E7
77
7E
FC
ENDCHAR
STARTCHAR $0200
ENCODING 512
SWIDTH 675 0
DWIDTH 11 0
BBX 10 15 0 0
BITMAP
1200
3F00
0980
0000
0E00
0E00
1F00
1B00
3300
3180
7F80
7F80
61C0
E0C0
C0C0
ENDCHAR
STARTCHAR $0201
ENCODING 513
SWIDTH 585 0
DWIDTH 10 0
BBX 8 11 0 0
BITMAP
44
6E
33
00
3B
7F
7F
E3
63
7F
3B
ENDCHAR
STARTCHAR $0202
ENCODING 514
SWIDTH 675 0
DWIDTH 11 0
BBX 11 14 0 0
BITMAP
1E00
1B00
0000
0E00
0E00
1E00
1F00
3B00
3180
7F80
7F80
7FC0
E0C0
E0E0
ENDCHAR
STARTCHAR $0203
ENCODING 515
SWIDTH 585 0
DWIDTH 10 0
BBX 8 9 0 1
BITMAP
1C
36
00
3F
7F
63
E3
7F
3F
ENDCHAR
STARTCHAR $0204
ENCODING 516
SWIDTH 540 0
DWIDTH 9 0
BBX 7 15 1 0
BITMAP
58
FC
64
00
FE
FC
C0
C0
FE
FE
C0
C0
FC
FE
FC
ENDCHAR
STARTCHAR $0205
ENCODING 517
SWIDTH 495 0
DWIDTH 8 0
BBX 7 11 0 0
BITMAP
48
6C
36
00
3C
7E
66
FE
60
7E
3E
ENDCHAR
STARTCHAR $0206
ENCODING 518
SWIDTH 540 0
DWIDTH 9 0
BBX 7 14 1 0
BITMAP
78
68
00
FE
FE
C0
C0
FC
FE
E0
C0
C0
FE
FC
ENDCHAR
STARTCHAR $0207
ENCODING 519
SWIDTH 495 0
DWIDTH 8 0
BBX 7 9 0 1
BITMAP
3C
66
00
3C
66
7E
FE
64
3E
ENDCHAR
STARTCHAR $0208
ENCODING 520
SWIDTH 270 0
DWIDTH 5 0
BBX 6 15 -1 0
BITMAP
48
EC
74
00
30
30
30
30
30
30
30
30
30
30
10
ENDCHAR
STARTCHAR $0209
ENCODING 521
SWIDTH 225 0
DWIDTH 4 0
BBX 6 11 -1 0
BITMAP
48
E8
6C
00
30
30
30
30
30
30
30
ENDCHAR
STARTCHAR $020A
ENCODING 522
SWIDTH 270 0
DWIDTH 5 0
BBX 5 14 -1 0
BITMAP
78
D8
00
70
70
70
70
70
70
70
70
70
70
30
ENDCHAR
STARTCHAR $020B
ENCODING 523
SWIDTH 225 0
DWIDTH 4 0
BBX 6 10 -1 1
BITMAP
78
FC
4C
00
30
30
30
30
30
30
ENDCHAR
STARTCHAR $020C
ENCODING 524
SWIDTH 720 0
DWIDTH 12 0
BBX 11 15 0 0
BITMAP
1200
1B00
0D80
0000
3F80
3FC0
70E0
6060
6060
E060
6060
70E0
7FC0
3F80
0F00
ENDCHAR
STARTCHAR $020D
ENCODING 525
SWIDTH 495 0
DWIDTH 8 0
BBX 8 11 0 0
BITMAP
48
6E
36
00
3C
7E
7F
E7
67
7E
3C
ENDCHAR
STARTCHAR $020E
ENCODING 526
SWIDTH 720 0
DWIDTH 12 0
BBX 11 14 0 0
BITMAP
0E00
1F00
0000
1F00
3FC0
71C0
60E0
6060
E060
6060
70E0
79C0
3FC0
0F00
ENDCHAR
STARTCHAR $020F
ENCODING 527
SWIDTH 495 0
DWIDTH 8 0
BBX 8 9 0 1
BITMAP
3C
66
00
3C
7E
67
E7
7E
3C
ENDCHAR
STARTCHAR $0210
ENCODING 528
SWIDTH 585 0
DWIDTH 10 0
BBX 8 15 1 0
BITMAP
48
7C
32
00
FC
FE
C6
C6
CE
FC
DC
CC
CE
CE
C3
ENDCHAR
STARTCHAR $0211
ENCODING 529
SWIDTH 405 0
DWIDTH 7 0
BBX 6 11 0 0
BITMAP
48
E8
7C
00
6C
7C
78
60
60
60
60
ENDCHAR
STARTCHAR $0212
ENCODING 530
SWIDTH 585 0
DWIDTH 10 0
BBX 8 14 1 0
BITMAP
38
64
00
FC
FE
C6
C6
C6
FC
FC
CC
CE
CE
C7
ENDCHAR
STARTCHAR $0213
ENCODING 531
SWIDTH 405 0
DWIDTH 7 0
BBX 6 10 0 1
BITMAP
78
F8
CC
00
7C
7C
60
60
60
60
ENDCHAR
STARTCHAR $0214
ENCODING 532
SWIDTH 630 0
DWIDTH 11 0
BBX 9 15 1 0
BITMAP
4400
6600
1200
0000
C380
C380
C380
C380
C380
C380
C380
C300
FF00
3E00
1800
ENDCHAR
STARTCHAR $0215
ENCODING 533
SWIDTH 540 0
DWIDTH 9 0
BBX 7 11 1 0
BITMAP
48
6C
76
00
C6
C6
C6
C6
CE
FE
78
ENDCHAR
STARTCHAR $0216
ENCODING 534
SWIDTH 630 0
DWIDTH 11 0
BBX 9 14 1 0
BITMAP
1C00
2600
0000
C380
C380
C380
C380
C380
C380
C380
C380
E700
7F00
3C00
ENDCHAR
STARTCHAR $0217
ENCODING 535
SWIDTH 540 0
DWIDTH 9 0
BBX 7 10 1 1
BITMAP
38
6C
44
00
C6
C6
C6
C6
FE
7C
ENDCHAR
STARTCHAR $0218
ENCODING 536
SWIDTH 540 0
DWIDTH 9 0
BBX 8 15 0 -3
BITMAP
1E
7F
72
70
7C
3E
07
03
63
FF
3E
00
18
08
08
ENDCHAR
STARTCHAR $0219
ENCODING 537
SWIDTH 450 0
DWIDTH 8 0
BBX 6 11 1 -5
BITMAP
78
E8
F0
78
9C
F8
F0
20
70
30
20
ENDCHAR
STARTCHAR $021A
ENCODING 538
SWIDTH 495 0
DWIDTH 8 0
BBX 7 15 0 -4
BITMAP
FE
FE
18
18
18
18
18
18
18
18
18
00
18
18
10
ENDCHAR
STARTCHAR $021B
ENCODING 539
SWIDTH 360 0
DWIDTH 6 0
BBX 5 13 0 -4
BITMAP
70
70
70
F8
F8
70
70
78
38
00
30
30
10
ENDCHAR
STARTCHAR $022A
ENCODING 554
SWIDTH 720 0
DWIDTH 12 0
BBX 11 16 0 0
BITMAP
1F80
0000
0900
1980
0000
0F00
3FC0
79C0
60E0
6060
E060
6060
60E0
71C0
3FC0
1F00
ENDCHAR
STARTCHAR $022B
ENCODING 555
SWIDTH 495 0
DWIDTH 8 0
BBX 8 12 0 1
BITMAP
7E
00
00
76
76
00
3C
7E
67
E7
7E
3C
ENDCHAR
STARTCHAR $022C
ENCODING 556
SWIDTH 720 0
DWIDTH 12 0
BBX 11 17 0 1
BITMAP
0F80
0000
0000
0D80
1F00
0000
0000
3F80
7FC0
70E0
6060
E060
E060
6060
70E0
7FC0
3F80
ENDCHAR
STARTCHAR $022D
ENCODING 557
SWIDTH 495 0
DWIDTH 8 0
BBX 8 13 0 1
BITMAP
7E
00
00
3A
7E
00
00
3C
7E
E7
67
7E
3C
ENDCHAR
STARTCHAR $0230
ENCODING 560
SWIDTH 720 0
DWIDTH 12 0
BBX 11 16 0 0
BITMAP
1F80
0000
0400
0600
0000
0F00
3FC0
79C0
60E0
6060
E060
6060
60E0
71C0
3FC0
1F00
ENDCHAR
STARTCHAR $0231
ENCODING 561
SWIDTH 495 0
DWIDTH 8 0
BBX 8 13 0 1
BITMAP
7E
00
00
18
18
00
00
3C
7E
E7
67
7E
3C
ENDCHAR
STARTCHAR $0232
ENCODING 562
SWIDTH 585 0
DWIDTH 10 0
BBX 9 13 0 1
BITMAP
3E00
0000
E180
E380
7700
3700
3E00
1E00
1C00
0C00
0C00
0C00
0C00
ENDCHAR
STARTCHAR $0233
ENCODING 563
SWIDTH 495 0
DWIDTH 8 0
BBX 8 13 0 -3
BITMAP
7E
00
00
C3
67
76
7E
3C
3C
18
38
30
70
ENDCHAR
STARTCHAR $0237
ENCODING 567
SWIDTH 270 0
DWIDTH 5 0
BBX 4 10 -1 -3
BITMAP
70
70
70
70
70
70
70
70
F0
E0
ENDCHAR
STARTCHAR $0259
ENCODING 601
SWIDTH 495 0
DWIDTH 8 0
BBX 7 7 1 0
BITMAP
78
FC
0E
FE
EE
7C
38
ENDCHAR
STARTCHAR $02BC
ENCODING 700
SWIDTH 450 0
DWIDTH 8 0
BBX 2 4 1 8
BITMAP
C0
C0
C0
80
ENDCHAR
STARTCHAR $02C6
ENCODING 710
SWIDTH 495 0
DWIDTH 8 0
BBX 5 3 1 8
BITMAP
20
F8
C8
ENDCHAR
STARTCHAR $02C7
ENCODING 711
SWIDTH 495 0
DWIDTH 8 0
BBX 4 3 2 8
BITMAP
90
F0
60
ENDCHAR
STARTCHAR $02C9
ENCODING 713
SWIDTH 450 0
DWIDTH 8 0
BBX 6 1 1 9
BITMAP
FC
ENDCHAR
STARTCHAR $02D8
ENCODING 728
SWIDTH 495 0
DWIDTH 8 0
BBX 5 3 1 8
BITMAP
88
F8
70
ENDCHAR
STARTCHAR $02D9
ENCODING 729
SWIDTH 270 0
DWIDTH 5 0
BBX 3 2 1 9
BITMAP
40
E0
ENDCHAR
STARTCHAR $02DA
ENCODING 730
SWIDTH 405 0
DWIDTH 7 0
BBX 4 4 1 8
BITMAP
70
F0
70
60
ENDCHAR
STARTCHAR $02DB
ENCODING 731
SWIDTH 360 0
DWIDTH 6 0
BBX 3 4 1 -4
BITMAP
40
80
E0
60
ENDCHAR
STARTCHAR $02DC
ENCODING 732
SWIDTH 495 0
DWIDTH 8 0
BBX 6 2 1 9
BITMAP
74
F8
ENDCHAR
STARTCHAR $02DD
ENCODING 733
SWIDTH 495 0
DWIDTH 8 0
BBX 5 3 1 8
BITMAP
48
78
D0
ENDCHAR
STARTCHAR $0300
ENCODING 768
SWIDTH 0 0
DWIDTH 0 0
BBX 3 3 1 8
BITMAP
80
C0
60
ENDCHAR
STARTCHAR $0301
ENCODING 769
SWIDTH 0 0
DWIDTH 0 0
BBX 3 3 2 8
BITMAP
20
E0
C0
ENDCHAR
STARTCHAR $0302
ENCODING 770
SWIDTH 0 0
DWIDTH 0 0
BBX 5 3 1 8
BITMAP
20
F8
C8
ENDCHAR
STARTCHAR $0303
ENCODING 771
SWIDTH 0 0
DWIDTH 0 0
BBX 6 2 1 9
BITMAP
6C
F8
ENDCHAR
STARTCHAR $0304
ENCODING 772
SWIDTH 0 0
DWIDTH 0 0
BBX 5 1 1 9
BITMAP
F8
ENDCHAR
STARTCHAR $0306
ENCODING 774
SWIDTH 0 0
DWIDTH 0 0
BBX 5 3 1 8
BITMAP
88
F8
70
ENDCHAR
STARTCHAR $0307
ENCODING 775
SWIDTH 0 0
DWIDTH 0 0
BBX 2 2 1 9
BITMAP
C0
C0
ENDCHAR
STARTCHAR $0308
ENCODING 776
SWIDTH 0 0
DWIDTH 0 0
BBX 6 2 1 9
BITMAP
4C
EC
ENDCHAR
STARTCHAR $0309
ENCODING 777
SWIDTH 0 0
DWIDTH 0 0
BBX 4 4 3 7
BITMAP
E0
30
30
60
ENDCHAR
STARTCHAR $030A
ENCODING 778
SWIDTH 0 0
DWIDTH 0 0
BBX 4 4 1 8
BITMAP
60
B0
F0
60
ENDCHAR
STARTCHAR $030B
ENCODING 779
SWIDTH 0 0
DWIDTH 0 0
BBX 5 3 1 7
BITMAP
48
68
D0
ENDCHAR
STARTCHAR $030C
ENCODING 780
SWIDTH 0 0
DWIDTH 0 0
BBX 5 3 1 8
BITMAP
98
F8
70
ENDCHAR
STARTCHAR $030F
ENCODING 783
SWIDTH 0 0
DWIDTH 0 0
BBX 6 3 1 8
BITMAP
98
F8
6C
ENDCHAR
STARTCHAR $0311
ENCODING 785
SWIDTH 0 0
DWIDTH 0 0
BBX 5 3 1 7
BITMAP
70
D8
88
ENDCHAR
STARTCHAR $0312
ENCODING 786
SWIDTH 0 0
DWIDTH 0 0
BBX 2 3 1 8
BITMAP
40
C0
C0
ENDCHAR
STARTCHAR $031B
ENCODING 795
SWIDTH 0 0
DWIDTH 0 0
BBX 4 3 3 7
BITMAP
70
E0
C0
ENDCHAR
STARTCHAR $0323
ENCODING 803
SWIDTH 0 0
DWIDTH 0 0
BBX 2 2 1 -1
BITMAP
40
C0
ENDCHAR
STARTCHAR $0324
ENCODING 804
SWIDTH 0 0
DWIDTH 0 0
BBX 5 2 1 -2
BITMAP
D8
D8
ENDCHAR
STARTCHAR $0326
ENCODING 806
SWIDTH 0 0
DWIDTH 0 0
BBX 3 4 1 -5
BITMAP
40
E0
40
40
ENDCHAR
STARTCHAR $0327
ENCODING 807
SWIDTH 0 0
DWIDTH 0 0
BBX 4 4 1 -4
BITMAP
40
20
F0
E0
ENDCHAR
STARTCHAR $0328
ENCODING 808
SWIDTH 0 0
DWIDTH 0 0
BBX 3 3 1 -4
BITMAP
80
E0
C0
ENDCHAR
STARTCHAR $032E
ENCODING 814
SWIDTH 0 0
DWIDTH 0 0
BBX 6 3 1 -3
BITMAP
48
FC
78
ENDCHAR
STARTCHAR $0331
ENCODING 817
SWIDTH 0 0
DWIDTH 0 0
BBX 5 1 1 -1
BITMAP
F8
ENDCHAR
STARTCHAR $1E80
ENCODING 7808
SWIDTH 900 0
DWIDTH 15 0
BBX 14 15 0 0
BITMAP
0200
0700
0300
0000
E31C
639C
7798
7798
77B8
77B8
3EF0
3CF0
3CF0
3C70
1860
ENDCHAR
STARTCHAR $1E81
ENCODING 7809
SWIDTH 720 0
DWIDTH 12 0
BBX 12 11 0 0
BITMAP
0400
0E00
0300
0000
C460
EE70
6E60
6FE0
79C0
79C0
31C0
ENDCHAR
STARTCHAR $1E82
ENCODING 7810
SWIDTH 900 0
DWIDTH 15 0
BBX 14 15 0 0
BITMAP
0080
0180
0200
0000
E31C
639C
7798
7798
77B8
77B8
3EF0
3CF0
3CF0
3C70
1860
ENDCHAR
STARTCHAR $1E83
ENCODING 7811
SWIDTH 720 0
DWIDTH 12 0
BBX 12 11 0 0
BITMAP
0200
0600
0C00
0000
C460
EE70
6E60
6FE0
79C0
79C0
31C0
ENDCHAR
STARTCHAR $1E84
ENCODING 7812
SWIDTH 900 0
DWIDTH 15 0
BBX 14 14 0 0
BITMAP
0EC0
0EC0
0000
E31C
631C
7398
7798
77B8
77B8
7EB0
3CF0
3CF0
3CF0
3C70
ENDCHAR
STARTCHAR $1E85
ENCODING 7813
SWIDTH 720 0
DWIDTH 12 0
BBX 12 9 0 1
BITMAP
1980
1900
0000
C670
EE60
6E60
7FE0
79C0
31C0
ENDCHAR
STARTCHAR $1E9E
ENCODING 7838
SWIDTH 630 0
DWIDTH 11 0
BBX 9 11 1 0
BITMAP
3E00
7F00
E700
CE00
CC00
CF00
CF80
C380
C380
DF00
DE00
ENDCHAR
STARTCHAR $1EA0
ENCODING 7840
SWIDTH 675 0
DWIDTH 11 0
BBX 11 14 0 -3
BITMAP
0E00
0E00
1E00
1F00
3B00
3380
7B80
7F80
7FC0
E0C0
E0E0
0000
0C00
0400
ENDCHAR
STARTCHAR $1EA1
ENCODING 7841
SWIDTH 585 0
DWIDTH 10 0
BBX 8 9 0 -2
BITMAP
3B
7F
63
E3
7F
3F
1B
08
08
ENDCHAR
STARTCHAR $1EA2
ENCODING 7842
SWIDTH 675 0
DWIDTH 11 0
BBX 10 15 0 0
BITMAP
0E00
0600
0600
0000
0E00
0E00
1F00
1B00
3300
3180
7F80
7F80
61C0
E0C0
C0C0
ENDCHAR
STARTCHAR $1EA3
ENCODING 7843
SWIDTH 585 0
DWIDTH 10 0
BBX 8 11 0 0
BITMAP
18
04
0C
0C
3B
7F
7F
E3
63
7F
3B
ENDCHAR
STARTCHAR $1EA4
ENCODING 7844
SWIDTH 675 0
DWIDTH 11 0
BBX 11 17 0 0
BITMAP
0040
01C0
0D00
1F00
1B00
0000
0E00
0E00
1E00
1F00
3300
3180
7F80
7F80
7FC0
E0C0
E0E0
ENDCHAR
STARTCHAR $1EA5
ENCODING 7845
SWIDTH 585 0
DWIDTH 10 0
BBX 8 14 0 1
BITMAP
0C
18
10
00
1C
3E
02
3B
7F
67
E3
63
7F
3B
ENDCHAR
STARTCHAR $1EA6
ENCODING 7846
SWIDTH 675 0
DWIDTH 11 0
BBX 11 17 0 0
BITMAP
0200
0300
0C80
1F00
1B00
0000
0E00
0E00
1E00
1F00
3300
3180
7F80
7F80
7FC0
E0C0
E0E0
ENDCHAR
STARTCHAR $1EA7
ENCODING 7847
SWIDTH 585 0
DWIDTH 10 0
BBX 8 15 0 0
BITMAP
18
18
0C
00
08
1C
3E
00
3B
7F
63
E3
7F
3F
1B
ENDCHAR
STARTCHAR $1EA8
ENCODING 7848
SWIDTH 675 0
DWIDTH 11 0
BBX 11 18 0 1
BITMAP
0300
0180
0180
0100
0E00
1B00
1100
0C00
0E00
1E00
1F00
1B00
3300
3380
7F80
7F80
61C0
E0E0
ENDCHAR
STARTCHAR $1EA9
ENCODING 7849
SWIDTH 585 0
DWIDTH 10 0
BBX 8 15 0 0
BITMAP
18
04
0C
0C
00
1C
3E
00
3B
7F
63
E3
7F
3F
1B
ENDCHAR
STARTCHAR $1EAA
ENCODING 7850
SWIDTH 675 0
DWIDTH 11 0
BBX 10 17 0 1
BITMAP
1D00
1F00
0000
0400
1F00
1100
0000
0E00
1E00
1F00
1B00
3300
3180
7F80
7F80
61C0
E0C0
ENDCHAR
STARTCHAR $1EAB
ENCODING 7851
SWIDTH 585 0
DWIDTH 10 0
BBX 8 14 0 0
BITMAP
3A
2E
00
00
1C
3E
02
3B
7F
67
E3
63
7F
3B
ENDCHAR
STARTCHAR $1EAC
ENCODING 7852
SWIDTH 675 0
DWIDTH 11 0
BBX 10 17 0 -2
BITMAP
0C00
1F00
1200
0000
0E00
0E00
1F00
1B00
3300
3180
7F80
7F80
61C0
E0C0
C0C0
0400
0400
ENDCHAR
STARTCHAR $1EAD
ENCODING 7853
SWIDTH 585 0
DWIDTH 10 0
BBX 8 12 0 -1
BITMAP
18
1C
36
00
3F
7F
E3
63
7F
3F
08
08
ENDCHAR
STARTCHAR $1EAE
ENCODING 7854
SWIDTH 675 0
DWIDTH 11 0
BBX 10 17 0 1
BITMAP
0200
0600
0800
0000
1F00
0C00
0000
0E00
1E00
1F00
1B00
3300
3180
7F80
7F80
61C0
E0C0
ENDCHAR
STARTCHAR $1EAF
ENCODING 7855
SWIDTH 585 0
DWIDTH 10 0
BBX 8 14 0 1
BITMAP
0C
1C
10
00
26
3C
18
3B
7F
67
E3
63
7F
3B
ENDCHAR
STARTCHAR $1EB0
ENCODING 7856
SWIDTH 675 0
DWIDTH 11 0
BBX 10 17 0 1
BITMAP
1800
1C00
0400
0000
1F00
0C00
0000
0E00
1E00
1F00
1B00
3300
3180
7F80
7F80
61C0
E0C0
ENDCHAR
STARTCHAR $1EB1
ENCODING 7857
SWIDTH 585 0
DWIDTH 10 0
BBX 8 14 0 1
BITMAP
18
1C
04
00
26
3C
18
3B
7F
67
E3
63
7F
3B
ENDCHAR
STARTCHAR $1EB2
ENCODING 7858
SWIDTH 675 0
DWIDTH 11 0
BBX 10 17 0 1
BITMAP
0E00
0600
0400
0000
1F00
0C00
0000
0E00
1E00
1F00
1B00
3300
3180
7F80
7F80
61C0
E0C0
ENDCHAR
STARTCHAR $1EB3
ENCODING 7859
SWIDTH 585 0
DWIDTH 10 0
BBX 8 15 0 0
BITMAP
1C
04
0C
08
22
36
1C
00
3B
7F
63
E3
7F
3F
1B
ENDCHAR
STARTCHAR $1EB4
ENCODING 7860
SWIDTH 675 0
DWIDTH 11 0
BBX 11 17 0 0
BITMAP
1F00
1700
0000
1B00
1E00
0000
0E00
0E00
1E00
1F00
3300
3180
7F80
7F80
7FC0
E0C0
E0E0
ENDCHAR
STARTCHAR $1EB5
ENCODING 7861
SWIDTH 585 0
DWIDTH 10 0
BBX 8 13 0 1
BITMAP
3A
2E
00
00
3E
1C
00
3F
7F
E3
63
7F
3F
ENDCHAR
STARTCHAR $1EB6
ENCODING 7862
SWIDTH 675 0
DWIDTH 11 0
BBX 11 17 0 -3
BITMAP
1B00
1E00
0000
0E00
0E00
1E00
1F00
3B00
3180
7F80
7F80
7FC0
E0C0
E0E0
0000
0C00
0400
ENDCHAR
STARTCHAR $1EB7
ENCODING 7863
SWIDTH 585 0
DWIDTH 10 0
BBX 8 12 0 -1
BITMAP
22
3E
1C
00
3F
7F
E3
63
7F
3F
08
08
ENDCHAR
STARTCHAR $1EB8
ENCODING 7864
SWIDTH 540 0
DWIDTH 9 0
BBX 7 14 1 -3
BITMAP
FE
FE
C0
C0
FC
FE
FC
C0
C0
FE
FC
00
30
10
ENDCHAR
STARTCHAR $1EB9
ENCODING 7865
SWIDTH 495 0
DWIDTH 8 0
BBX 7 9 0 -2
BITMAP
3C
66
7E
FE
64
3E
1C
18
10
ENDCHAR
STARTCHAR $1EBA
ENCODING 7866
SWIDTH 540 0
DWIDTH 9 0
BBX 7 15 1 0
BITMAP
38
18
30
00
FE
FC
C0
C0
FE
FE
C0
C0
FC
FE
FC
ENDCHAR
STARTCHAR $1EBB
ENCODING 7867
SWIDTH 495 0
DWIDTH 8 0
BBX 7 11 0 0
BITMAP
18
0C
0C
18
3C
7E
66
FE
60
7E
3E
ENDCHAR
STARTCHAR $1EBC
ENCODING 7868
SWIDTH 540 0
DWIDTH 9 0
BBX 7 14 1 0
BITMAP
7C
F8
00
FE
FE
C0
C0
FC
FE
E0
C0
C0
FE
FC
ENDCHAR
STARTCHAR $1EBD
ENCODING 7869
SWIDTH 495 0
DWIDTH 8 0
BBX 7 10 0 1
BITMAP
3A
7C
00
00
3C
66
FE
60
76
3E
ENDCHAR
STARTCHAR $1EBE
ENCODING 7870
SWIDTH 540 0
DWIDTH 9 0
BBX 8 17 1 0
BITMAP
03
07
34
78
4C
00
FE
FE
C0
C0
FC
FE
C0
C0
E0
FE
FC
ENDCHAR
STARTCHAR $1EBF
ENCODING 7871
SWIDTH 495 0
DWIDTH 8 0
BBX 7 15 0 0
BITMAP
08
1C
30
00
00
38
7E
00
3C
66
7E
FE
64
3E
1C
ENDCHAR
STARTCHAR $1EC0
ENCODING 7872
SWIDTH 540 0
DWIDTH 9 0
BBX 7 17 1 0
BITMAP
08
0C
30
78
4C
00
FE
FE
C0
C0
FC
FE
C0
C0
E0
FE
FC
ENDCHAR
STARTCHAR $1EC1
ENCODING 7873
SWIDTH 495 0
DWIDTH 8 0
BBX 7 15 0 0
BITMAP
10
18
0C
00
00
38
7E
00
3C
66
7E
FE
64
3E
1C
ENDCHAR
STARTCHAR $1EC2
ENCODING 7874
SWIDTH 540 0
DWIDTH 9 0
BBX 7 18 1 1
BITMAP
1C
06
06
0C
38
6C
40
FC
FE
E0
C0
C0
FE
FC
C0
C0
FE
FE
ENDCHAR
STARTCHAR $1EC3
ENCODING 7875
SWIDTH 495 0
DWIDTH 8 0
BBX 7 15 0 0
BITMAP
18
0C
0C
18
00
18
7E
00
3C
66
7E
FE
64
3E
1C
ENDCHAR
STARTCHAR $1EC4
ENCODING 7876
SWIDTH 540 0
DWIDTH 9 0
BBX 7 17 1 1
BITMAP
74
F8
00
10
7C
4C
00
FE
FC
C0
C0
FE
FE
C0
C0
FC
FE
ENDCHAR
STARTCHAR $1EC5
ENCODING 7877
SWIDTH 495 0
DWIDTH 8 0
BBX 7 14 0 0
BITMAP
3A
7C
00
00
38
3C
00
3C
7E
7E
FE
60
7E
3C
ENDCHAR
STARTCHAR $1EC6
ENCODING 7878
SWIDTH 540 0
DWIDTH 9 0
BBX 7 17 1 -2
BITMAP
30
78
4C
00
FE
FC
C0
C0
FE
FE
C0
C0
FC
FE
FC
20
30
ENDCHAR
STARTCHAR $1EC7
ENCODING 7879
SWIDTH 495 0
DWIDTH 8 0
BBX 7 12 0 -1
BITMAP
18
3C
24
00
3C
66
FE
60
76
3E
18
18
ENDCHAR
STARTCHAR $1EC8
ENCODING 7880
SWIDTH 270 0
DWIDTH 5 0
BBX 4 15 0 0
BITMAP
F0
30
20
00
60
60
60
60
60
60
60
60
60
60
40
ENDCHAR
STARTCHAR $1EC9
ENCODING 7881
SWIDTH 225 0
DWIDTH 4 0
BBX 4 11 0 0
BITMAP
E0
30
20
60
60
60
60
60
60
60
60
ENDCHAR
STARTCHAR $1ECA
ENCODING 7882
SWIDTH 270 0
DWIDTH 5 0
BBX 2 13 1 -2
BITMAP
C0
C0
C0
C0
C0
C0
C0
C0
C0
C0
C0
00
C0
ENDCHAR
STARTCHAR $1ECB
ENCODING 7883
SWIDTH 270 0
DWIDTH 5 0
BBX 3 13 1 -2
BITMAP
C0
E0
40
00
C0
C0
C0
C0
C0
C0
C0
00
C0
ENDCHAR
STARTCHAR $1ECC
ENCODING 7884
SWIDTH 720 0
DWIDTH 12 0
BBX 11 15 0 -3
BITMAP
1F00
3FC0
71C0
60E0
6060
E060
6060
60E0
79C0
3FC0
0F00
0000
0000
0000
0600
ENDCHAR
STARTCHAR $1ECD
ENCODING 7885
SWIDTH 495 0
DWIDTH 8 0
BBX 8 10 0 -3
BITMAP
3C
7E
67
E7
7F
3C
18
00
18
18
ENDCHAR
STARTCHAR $1ECE
ENCODING 7886
SWIDTH 720 0
DWIDTH 12 0
BBX 11 15 0 0
BITMAP
0E00
0200
0600
0000
3F80
3FC0
70E0
6060
6060
E060
6060
70E0
7FC0
3F80
0F00
ENDCHAR
STARTCHAR $1ECF
ENCODING 7887
SWIDTH 495 0
DWIDTH 8 0
BBX 8 11 0 0
BITMAP
18
0C
0C
18
3C
7E
7F
E7
67
7E
3C
ENDCHAR
STARTCHAR $1ED0
ENCODING 7888
SWIDTH 720 0
DWIDTH 12 0
BBX 11 17 0 0
BITMAP
0040
00E0
0580
0F00
0B00
0000
1F00
3FC0
71C0
60E0
6060
E060
6060
70E0
79C0
3FC0
0F00
ENDCHAR
STARTCHAR $1ED1
ENCODING 7889
SWIDTH 495 0
DWIDTH 8 0
BBX 8 15 0 0
BITMAP
08
1C
30
00
00
18
7E
00
3C
7E
67
E7
7F
3C
18
ENDCHAR
STARTCHAR $1ED2
ENCODING 7890
SWIDTH 720 0
DWIDTH 12 0
BBX 11 16 0 1
BITMAP
0180
0280
0E00
0F00
0000
0F00
3FC0
79C0
60E0
6060
E060
6060
60E0
71C0
3FC0
1F00
ENDCHAR
STARTCHAR $1ED3
ENCODING 7891
SWIDTH 495 0
DWIDTH 8 0
BBX 8 14 0 1
BITMAP
18
18
00
00
18
3C
00
3C
7E
67
E7
67
7E
3C
ENDCHAR
STARTCHAR $1ED4
ENCODING 7892
SWIDTH 720 0
DWIDTH 12 0
BBX 11 18 0 1
BITMAP
0380
0080
0080
0100
0600
0F00
0900
0F00
3FC0
79C0
70E0
6060
E060
6060
60E0
71C0
3FC0
1F00
ENDCHAR
STARTCHAR $1ED5
ENCODING 7893
SWIDTH 495 0
DWIDTH 8 0
BBX 8 15 0 0
BITMAP
18
0C
0C
18
00
18
7E
00
3C
7E
67
E7
7F
3C
18
ENDCHAR
STARTCHAR $1ED6
ENCODING 7894
SWIDTH 720 0
DWIDTH 12 0
BBX 11 17 0 0
BITMAP
1D80
1F00
0000
0F00
1B00
0100
1F00
3FC0
71C0
60E0
6060
E060
6060
70E0
79C0
3FC0
0F00
ENDCHAR
STARTCHAR $1ED7
ENCODING 7895
SWIDTH 495 0
DWIDTH 8 0
BBX 8 14 0 0
BITMAP
3A
7E
00
00
3C
3C
00
3C
7E
67
E7
67
7E
3C
ENDCHAR
STARTCHAR $1ED8
ENCODING 7896
SWIDTH 720 0
DWIDTH 12 0
BBX 11 19 0 -4
BITMAP
0600
0F00
0B00
0000
3F80
3FC0
70E0
6060
6060
E060
6060
70E0
7FC0
3F80
0F00
0000
0000
0000
0400
ENDCHAR
STARTCHAR $1ED9
ENCODING 7897
SWIDTH 495 0
DWIDTH 8 0
BBX 8 13 0 -3
BITMAP
18
3C
24
00
3C
7E
E7
67
7E
3C
00
00
18
ENDCHAR
STARTCHAR $1EDA
ENCODING 7898
SWIDTH 720 0
DWIDTH 12 0
BBX 12 15 0 1
BITMAP
0200
0600
0800
0030
3FB0
3FF0
70E0
6060
6060
E060
6060
70E0
7FC0
3F80
0F00
ENDCHAR
STARTCHAR $1EDB
ENCODING 7899
SWIDTH 495 0
DWIDTH 8 0
BBX 9 11 0 0
BITMAP
0800
1C00
3000
0180
3D80
7F80
7E00
E700
6700
7E00
3C00
ENDCHAR
STARTCHAR $1EDC
ENCODING 7900
SWIDTH 720 0
DWIDTH 12 0
BBX 12 15 0 1
BITMAP
0C00
0700
0200
0030
3FB0
3FF0
70E0
6060
6060
E060
6060
70E0
7FC0
3F80
0F00
ENDCHAR
STARTCHAR $1EDD
ENCODING 7901
SWIDTH 495 0
DWIDTH 8 0
BBX 9 11 0 0
BITMAP
1000
1800
0C00
0180
3D80
7F80
7E00
E700
6700
7E00
3C00
ENDCHAR
STARTCHAR $1EDE
ENCODING 7902
SWIDTH 720 0
DWIDTH 12 0
BBX 12 15 0 1
BITMAP
0E00
0E00
0200
0600
0F10
3FF0
7FE0
70E0
6060
E060
6060
60E0
70C0
3FC0
1F80
ENDCHAR
STARTCHAR $1EDF
ENCODING 7903
SWIDTH 495 0
DWIDTH 8 0
BBX 9 11 0 0
BITMAP
1800
0C00
0C00
1980
3D80
7F80
7E00
E700
6700
7E00
3C00
ENDCHAR
STARTCHAR $1EE0
ENCODING 7904
SWIDTH 720 0
DWIDTH 12 0
BBX 12 15 0 0
BITMAP
0D80
1F00
0000
0030
3FB0
3FF0
70E0
6060
6060
E060
6060
70E0
7FC0
3F80
0F00
ENDCHAR
STARTCHAR $1EE1
ENCODING 7905
SWIDTH 495 0
DWIDTH 8 0
BBX 9 10 0 1
BITMAP
3A00
7E00
0180
0180
3F80
7E00
E700
6700
7E00
3C00
ENDCHAR
STARTCHAR $1EE2
ENCODING 7906
SWIDTH 720 0
DWIDTH 12 0
BBX 12 16 0 -4
BITMAP
0030
1F90
3FF0
70C0
60E0
6060
E060
6060
70E0
7FC0
3FC0
0F00
0000
0000
0600
0600
ENDCHAR
STARTCHAR $1EE3
ENCODING 7907
SWIDTH 495 0
DWIDTH 8 0
BBX 9 11 0 -3
BITMAP
0180
1980
3F80
7E00
E700
6700
7E00
3C00
0000
1800
1800
ENDCHAR
STARTCHAR $1EE4
ENCODING 7908
SWIDTH 630 0
DWIDTH 11 0
BBX 9 13 1 -2
BITMAP
C380
C380
C380
C380
C380
C380
C380
C380
E700
7F00
3C00
0000
0800
ENDCHAR
STARTCHAR $1EE5
ENCODING 7909
SWIDTH 540 0
DWIDTH 9 0
BBX 7 9 1 -2
BITMAP
C6
C6
C6
C6
FE
7C
38
10
10
ENDCHAR
STARTCHAR $1EE6
ENCODING 7910
SWIDTH 630 0
DWIDTH 11 0
BBX 9 15 1 0
BITMAP
3C00
0C00
0800
0000
C380
C380
C380
C380
C380
C380
C380
C300
FF00
3E00
1800
ENDCHAR
STARTCHAR $1EE7
ENCODING 7911
SWIDTH 540 0
DWIDTH 9 0
BBX 7 11 1 0
BITMAP
78
18
08
10
C6
C6
C6
C6
CE
FE
78
ENDCHAR
STARTCHAR $1EE8
ENCODING 7912
SWIDTH 765 0
DWIDTH 13 0
BBX 12 15 1 1
BITMAP
0C00
1800
1030
0030
C3E0
C380
C380
C380
C380
C380
C380
C300
FF00
3E00
1800
ENDCHAR
STARTCHAR $1EE9
ENCODING 7913
SWIDTH 675 0
DWIDTH 11 0
BBX 10 11 1 0
BITMAP
1800
1800
3040
0040
C7C0
C780
C600
C600
CE00
FE00
7800
ENDCHAR
STARTCHAR $1EEA
ENCODING 7914
SWIDTH 765 0
DWIDTH 13 0
BBX 12 15 1 1
BITMAP
1800
0C00
0430
0030
C3E0
C380
C380
C380
C380
C380
C380
C300
FF00
3E00
1800
ENDCHAR
STARTCHAR $1EEB
ENCODING 7915
SWIDTH 675 0
DWIDTH 11 0
BBX 10 11 1 0
BITMAP
1000
3800
0840
0040
C7C0
C780
C600
C600
CE00
FE00
7800
ENDCHAR
STARTCHAR $1EEC
ENCODING 7916
SWIDTH 765 0
DWIDTH 13 0
BBX 12 15 1 1
BITMAP
3800
0C00
0C30
0830
C3F0
C3E0
C380
C380
C380
C380
C380
C380
E700
7F00
3E00
ENDCHAR
STARTCHAR $1EED
ENCODING 7917
SWIDTH 675 0
DWIDTH 11 0
BBX 10 11 1 0
BITMAP
7800
1800
0840
1040
C7C0
C780
C600
C600
CE00
FE00
7800
ENDCHAR
STARTCHAR $1EEE
ENCODING 7918
SWIDTH 765 0
DWIDTH 13 0
BBX 12 15 1 0
BITMAP
3A00
6E00
0030
0030
C3E0
C380
C380
C380
C380
C380
C380
C300
FF00
3E00
1800
ENDCHAR
STARTCHAR $1EEF
ENCODING 7919
SWIDTH 675 0
DWIDTH 11 0
BBX 10 10 1 1
BITMAP
7600
7C40
0040
00C0
C7C0
C600
C600
C600
FE00
7C00
ENDCHAR
STARTCHAR $1EF0
ENCODING 7920
SWIDTH 765 0
DWIDTH 13 0
BBX 12 15 1 -2
BITMAP
0030
C3F0
C3E0
C380
C380
C380
C380
C380
C380
E700
7F00
3E00
1800
1800
0800
ENDCHAR
STARTCHAR $1EF1
ENCODING 7921
SWIDTH 675 0
DWIDTH 11 0
BBX 10 10 1 -1
BITMAP
0040
C3C0
C7C0
C600
C600
CE00
FE00
7800
1000
1000
ENDCHAR
STARTCHAR $1EF2
ENCODING 7922
SWIDTH 585 0
DWIDTH 10 0
BBX 9 15 0 0
BITMAP
1000
1800
0C00
0000
E380
7380
7700
3E00
3E00
1E00
0C00
0C00
0C00
0C00
0800
ENDCHAR
STARTCHAR $1EF3
ENCODING 7923
SWIDTH 495 0
DWIDTH 8 0
BBX 8 15 0 -4
BITMAP
10
18
0C
00
C3
67
66
76
3C
3C
38
18
38
30
20
ENDCHAR
STARTCHAR $1EF4
ENCODING 7924
SWIDTH 585 0
DWIDTH 10 0
BBX 9 14 0 -3
BITMAP
E380
E380
7700
3F00
3E00
1E00
1C00
0C00
0C00
0C00
0C00
0000
0C00
0800
ENDCHAR
STARTCHAR $1EF5
ENCODING 7925
SWIDTH 495 0
DWIDTH 8 0
BBX 8 10 0 -3
BITMAP
C3
67
76
7E
3C
3C
18
38
38
70
ENDCHAR
STARTCHAR $1EF6
ENCODING 7926
SWIDTH 585 0
DWIDTH 10 0
BBX 9 15 0 0
BITMAP
1C00
0600
0C00
0000
E380
7380
7700
3E00
3E00
1E00
0C00
0C00
0C00
0C00
0800
ENDCHAR
STARTCHAR $1EF7
ENCODING 7927
SWIDTH 495 0
DWIDTH 8 0
BBX 8 15 0 -4
BITMAP
38
0C
0C
08
C3
67
66
76
3C
3C
38
18
38
30
20
ENDCHAR
STARTCHAR $1EF8
ENCODING 7928
SWIDTH 585 0
DWIDTH 10 0
BBX 9 14 0 0
BITMAP
3A00
2E00
0000
E380
E380
7700
3F00
3E00
1E00
1C00
0C00
0C00
0C00
0C00
ENDCHAR
STARTCHAR $1EF9
ENCODING 7929
SWIDTH 495 0
DWIDTH 8 0
BBX 8 14 0 -4
BITMAP
3A
7E
00
00
E7
66
76
7E
3C
38
18
38
30
30
ENDCHAR
STARTCHAR $2013
ENCODING 8211
SWIDTH 450 0
DWIDTH 8 0
BBX 7 2 0 4
BITMAP
FE
FE
ENDCHAR
STARTCHAR $2014
ENCODING 8212
SWIDTH 855 0
DWIDTH 14 0
BBX 14 2 0 4
BITMAP
FFFC
FFFC
ENDCHAR
STARTCHAR $2018
ENCODING 8216
SWIDTH 225 0
DWIDTH 4 0
BBX 3 5 1 7
BITMAP
40
80
C0
E0
C0
ENDCHAR
STARTCHAR $2019
ENCODING 8217
SWIDTH 225 0
DWIDTH 4 0
BBX 3 4 0 8
BITMAP
40
E0
60
60
ENDCHAR
STARTCHAR $201A
ENCODING 8218
SWIDTH 225 0
DWIDTH 4 0
BBX 3 5 1 -1
BITMAP
40
E0
E0
40
C0
ENDCHAR
STARTCHAR $201C
ENCODING 8220
SWIDTH 495 0
DWIDTH 8 0
BBX 7 5 1 7
BITMAP
64
48
EC
EE
EE
ENDCHAR
STARTCHAR $201D
ENCODING 8221
SWIDTH 495 0
DWIDTH 8 0
BBX 7 5 1 7
BITMAP
4C
EE
EC
44
48
ENDCHAR
STARTCHAR $201E
ENCODING 8222
SWIDTH 495 0
DWIDTH 8 0
BBX 7 5 1 -1
BITMAP
4C
EE
EC
44
C8
ENDCHAR
STARTCHAR $2020
ENCODING 8224
SWIDTH 450 0
DWIDTH 8 0
BBX 5 14 1 -2
BITMAP
70
70
70
F8
F8
70
70
70
70
70
70
70
70
30
ENDCHAR
STARTCHAR $2021
ENCODING 8225
SWIDTH 450 0
DWIDTH 8 0
BBX 5 14 1 -2
BITMAP
70
70
70
F8
F8
70
70
F8
F8
70
70
70
70
30
ENDCHAR
STARTCHAR $2022
ENCODING 8226
SWIDTH 540 0
DWIDTH 9 0
BBX 4 5 2 3
BITMAP
70
F0
F0
F0
F0
ENDCHAR
STARTCHAR $2026
ENCODING 8230
SWIDTH 810 0
DWIDTH 13 0
BBX 12 3 1 0
BITMAP
4670
EE70
4670
ENDCHAR
STARTCHAR $2030
ENCODING 8240
SWIDTH 1125 0
DWIDTH 18 0
BBX 16 11 1 0
BITMAP
7000
D830
9860
D9C0
7300
0C00
3F8E
66DB
C4F9
07DF
038E
ENDCHAR
STARTCHAR $2039
ENCODING 8249
SWIDTH 315 0
DWIDTH 6 0
BBX 3 6 1 0
BITMAP
20
60
C0
C0
E0
20
ENDCHAR
STARTCHAR $203A
ENCODING 8250
SWIDTH 315 0
DWIDTH 6 0
BBX 3 6 1 1
BITMAP
40
C0
60
60
40
C0
ENDCHAR
STARTCHAR $2044
ENCODING 8260
SWIDTH 225 0
DWIDTH 4 0
BBX 7 11 -2 0
BITMAP
02
06
04
0C
08
10
10
30
60
60
C0
ENDCHAR
STARTCHAR $2074
ENCODING 8308
SWIDTH 225 0
DWIDTH 4 0
BBX 3 4 0 8
BITMAP
60
60
E0
E0
ENDCHAR
STARTCHAR $20A1
ENCODING 8353
SWIDTH 585 0
DWIDTH 10 0
BBX 9 13 0 0
BITMAP
0300
1F80
3F80
7700
6F00
6F00
EA00
7E00
7600
7F80
3F80
6F00
6800
ENDCHAR
STARTCHAR $20A3
ENCODING 8355
SWIDTH 495 0
DWIDTH 8 0
BBX 7 11 0 0
BITMAP
7E
7E
60
60
7C
7E
7C
60
F8
E0
60
ENDCHAR
STARTCHAR $20A4
ENCODING 8356
SWIDTH 630 0
DWIDTH 11 0
BBX 8 11 1 0
BITMAP
3C
7E
62
60
60
FC
70
38
30
FF
CE
ENDCHAR
STARTCHAR $20A6
ENCODING 8358
SWIDTH 720 0
DWIDTH 12 0
BBX 12 11 0 0
BITMAP
70C0
78C0
78C0
6CC0
FFE0
FFF0
66C0
63C0
63C0
61C0
61C0
ENDCHAR
STARTCHAR $20A7
ENCODING 8359
SWIDTH 540 0
DWIDTH 9 0
BBX 9 11 0 0
BITMAP
7E00
7F00
6700
FF80
E700
7F00
7E00
6000
6000
6000
6000
ENDCHAR
STARTCHAR $20A9
ENCODING 8361
SWIDTH 900 0
DWIDTH 15 0
BBX 14 11 0 0
BITMAP
E31C
631C
7798
7798
FFFC
FFFC
7EF0
3CF0
3CF0
3CF0
3C70
ENDCHAR
STARTCHAR $20AB
ENCODING 8363
SWIDTH 540 0
DWIDTH 9 0
BBX 9 14 0 -2
BITMAP
0300
0F00
0F80
0300
0300
3B00
7F00
6300
E300
7F00
7F00
3B00
3C00
3C00
ENDCHAR
STARTCHAR $20AC
ENCODING 8364
SWIDTH 675 0
DWIDTH 11 0
BBX 10 11 0 0
BITMAP
0F80
1FC0
3C80
7800
FF00
7000
FF00
7800
3C80
1FC0
0F80
ENDCHAR
STARTCHAR $20AD
ENCODING 8365
SWIDTH 585 0
DWIDTH 10 0
BBX 9 11 0 0
BITMAP
6300
6700
6E00
7C00
FF00
FF80
7C00
6E00
6600
6700
6380
ENDCHAR
STARTCHAR $20B1
ENCODING 8369
SWIDTH 540 0
DWIDTH 9 0
BBX 8 11 0 0
BITMAP
7E
7F
67
FF
FF
67
67
7E
78
60
60
ENDCHAR
STARTCHAR $20B2
ENCODING 8370
SWIDTH 720 0
DWIDTH 12 0
BBX 11 14 0 -2
BITMAP
0E00
1F80
3FC0
7EC0
6E00
EE00
EFE0
6E60
7EE0
7FC0
3FC0
0F00
0E00
0C00
ENDCHAR
STARTCHAR $20B5
ENCODING 8373
SWIDTH 585 0
DWIDTH 10 0
BBX 9 14 0 -2
BITMAP
0E00
1F00
3F80
7E00
6E00
6E00
EE00
6E00
7E00
7F80
3F80
0F00
0E00
0C00
ENDCHAR
STARTCHAR $20B9
ENCODING 8377
SWIDTH 585 0
DWIDTH 10 0
BBX 7 11 1 0
BITMAP
FE
3C
1C
FE
1C
1C
F8
E0
70
38
1C
ENDCHAR
STARTCHAR $20BA
ENCODING 8378
SWIDTH 495 0
DWIDTH 8 0
BBX 8 11 0 0
BITMAP
60
60
6C
FC
E0
7C
F0
63
67
7E
7C
ENDCHAR
STARTCHAR $20BC
ENCODING 8380
SWIDTH 585 0
DWIDTH 10 0
BBX 8 12 1 0
BITMAP
10
3C
7E
FF
D3
D3
D3
D3
D3
D3
D3
D3
ENDCHAR
STARTCHAR $20BD
ENCODING 8381
SWIDTH 540 0
DWIDTH 9 0
BBX 9 11 -1 0
BITMAP
7E00
7F00
7380
7180
7380
FF80
FF00
7000
F800
7000
3000
ENDCHAR
STARTCHAR $2116
ENCODING 8470
SWIDTH 1260 0
DWIDTH 21 0
BBX 19 11 1 0
BITMAP
F18780
F18FC0
F18CC0
D99CE0
DD8CC0
CD8FC0
CF8780
C78000
C78000
C38FE0
C38FE0
ENDCHAR
STARTCHAR $2122
ENCODING 8482
SWIDTH 405 0
DWIDTH 7 0
BBX 7 3 0 8
BITMAP
F4
18
1A
ENDCHAR
STARTCHAR $2212
ENCODING 8722
SWIDTH 540 0
DWIDTH 9 0
BBX 7 2 1 5
BITMAP
FE
FE
ENDCHAR
STARTCHAR $2215
ENCODING 8725
SWIDTH 540 0
DWIDTH 9 0
BBX 7 12 1 0
BITMAP
0E
0C
0C
18
18
10
30
30
60
60
40
C0
ENDCHAR
STARTCHAR $2219
ENCODING 8729
SWIDTH 540 0
DWIDTH 9 0
BBX 4 5 2 3
BITMAP
70
F0
F0
F0
F0
ENDCHAR
STARTCHAR $2248
ENCODING 8776
SWIDTH 585 0
DWIDTH 10 0
BBX 8 6 1 1
BITMAP
7A
DE
00
70
FF
0C
ENDCHAR
STARTCHAR $2260
ENCODING 8800
SWIDTH 540 0
DWIDTH 9 0
BBX 7 9 1 1
BITMAP
0C
FC
FE
FC
FC
FE
FC
C0
80
ENDCHAR
STARTCHAR $2264
ENCODING 8804
SWIDTH 540 0
DWIDTH 9 0
BBX 8 11 0 0
BITMAP
03
0F
3E
70
78
3E
0F
01
00
FF
FF
ENDCHAR
STARTCHAR $2265
ENCODING 8805
SWIDTH 540 0
DWIDTH 9 0
BBX 7 11 1 0
BITMAP
80
F0
7C
1E
1E
7C
E0
80
00
FE
FE
ENDCHAR
STARTCHAR FB01
ENCODING 64257
SWIDTH 630 0
DWIDTH 11 0
BBX 9 12 0 0
BITMAP
1C00
3980
7180
7000
7000
F980
F980
7180
7180
7180
7180
2100
ENDCHAR
STARTCHAR FB02
ENCODING 64258
SWIDTH 585 0
DWIDTH 10 0
BBX 9 12 0 0
BITMAP
1D80
3980
7180
7180
7180
F980
F980
7180
7180
7180
7180
2100
ENDCHAR
ENDFONT
